M48
; DRILL file {KiCad 5.1.10-88a1d61d58~90~ubuntu20.04.1} date Thu Dec 16 23:27:46 2021
; FORMAT={-:-/ absolute / inch / decimal}
; #@! TF.CreationDate,2021-12-16T23:27:46-03:00
; #@! TF.GenerationSoftware,Kicad,Pcbnew,5.1.10-88a1d61d58~90~ubuntu20.04.1
; #@! TF.FileFunction,Plated,1,2,PTH
FMAT,2
INCH
T1C0.0157
T2C0.0400
%
G90
G05
T1
X4.96Y-2.75
X5.05Y-2.775
X5.05Y-3.35
X5.1345Y-2.8691
X5.225Y-3.35
X5.275Y-3.15
X5.35Y-3.075
X5.4721Y-2.9966
X5.49Y-2.77
X5.5002Y-3.025
X5.525Y-3.1535
X5.5715Y-3.0993
X5.6Y-3.15
X5.6Y-3.0
X5.65Y-2.77
X5.65Y-3.0285
X5.6571Y-3.1
X5.725Y-2.85
X5.8Y-2.95
X5.8152Y-3.038
X5.875Y-3.1785
X6.0488Y-3.3458
X6.125Y-3.15
X6.125Y-3.2533
X6.175Y-2.875
X6.175Y-2.95
X6.175Y-3.3447
X6.1751Y-3.2571
X6.2Y-2.75
X6.2Y-3.075
X6.2538Y-2.927
X6.3Y-2.675
T2
X4.985Y-2.675
X4.99Y-3.425
X5.095Y-2.675
X5.1Y-3.425
X5.205Y-2.675
X5.21Y-3.425
X5.3Y-3.3
X5.315Y-2.675
X5.32Y-3.425
X5.41Y-3.3
X5.425Y-2.675
X5.43Y-3.425
X5.535Y-2.675
X5.54Y-3.425
X5.645Y-2.675
X5.65Y-3.425
X5.75Y-3.3
X5.755Y-2.675
X5.76Y-3.425
X5.86Y-3.3
X5.865Y-2.675
X5.87Y-3.425
X5.975Y-2.675
X5.98Y-3.425
X6.085Y-2.675
X6.09Y-3.425
X6.195Y-2.675
X6.2Y-3.425
X6.3Y-2.775
X6.3Y-2.885
X6.3Y-2.995
X6.3Y-3.105
X6.3Y-3.215
X6.3Y-3.325
T0
M30
