%TF.GenerationSoftware,KiCad,Pcbnew,5.1.10-88a1d61d58~90~ubuntu20.04.1*%
%TF.CreationDate,2021-12-16T23:27:53-03:00*%
%TF.ProjectId,projeto-final,70726f6a-6574-46f2-9d66-696e616c2e6b,rev?*%
%TF.SameCoordinates,Original*%
%TF.FileFunction,Legend,Bot*%
%TF.FilePolarity,Positive*%
%FSLAX46Y46*%
G04 Gerber Fmt 4.6, Leading zero omitted, Abs format (unit mm)*
G04 Created by KiCad (PCBNEW 5.1.10-88a1d61d58~90~ubuntu20.04.1) date 2021-12-16 23:27:53*
%MOMM*%
%LPD*%
G01*
G04 APERTURE LIST*
%ADD10C,0.120000*%
%ADD11C,0.150000*%
G04 APERTURE END LIST*
D10*
%TO.C,R4*%
X153907258Y-80757500D02*
X153432742Y-80757500D01*
X153907258Y-81802500D02*
X153432742Y-81802500D01*
%TO.C,R5*%
X153907258Y-82281500D02*
X153432742Y-82281500D01*
X153907258Y-83326500D02*
X153432742Y-83326500D01*
%TO.C,R4*%
D11*
X153803333Y-80371904D02*
X154070000Y-79990952D01*
X154260476Y-80371904D02*
X154260476Y-79571904D01*
X153955714Y-79571904D01*
X153879523Y-79610000D01*
X153841428Y-79648095D01*
X153803333Y-79724285D01*
X153803333Y-79838571D01*
X153841428Y-79914761D01*
X153879523Y-79952857D01*
X153955714Y-79990952D01*
X154260476Y-79990952D01*
X153117619Y-79838571D02*
X153117619Y-80371904D01*
X153308095Y-79533809D02*
X153498571Y-80105238D01*
X153003333Y-80105238D01*
%TO.C,R5*%
X153803333Y-84689904D02*
X154070000Y-84308952D01*
X154260476Y-84689904D02*
X154260476Y-83889904D01*
X153955714Y-83889904D01*
X153879523Y-83928000D01*
X153841428Y-83966095D01*
X153803333Y-84042285D01*
X153803333Y-84156571D01*
X153841428Y-84232761D01*
X153879523Y-84270857D01*
X153955714Y-84308952D01*
X154260476Y-84308952D01*
X153079523Y-83889904D02*
X153460476Y-83889904D01*
X153498571Y-84270857D01*
X153460476Y-84232761D01*
X153384285Y-84194666D01*
X153193809Y-84194666D01*
X153117619Y-84232761D01*
X153079523Y-84270857D01*
X153041428Y-84347047D01*
X153041428Y-84537523D01*
X153079523Y-84613714D01*
X153117619Y-84651809D01*
X153193809Y-84689904D01*
X153384285Y-84689904D01*
X153460476Y-84651809D01*
X153498571Y-84613714D01*
%TD*%
M02*
