%TF.GenerationSoftware,KiCad,Pcbnew,5.1.10-88a1d61d58~90~ubuntu20.04.1*%
%TF.CreationDate,2021-12-16T23:27:53-03:00*%
%TF.ProjectId,projeto-final,70726f6a-6574-46f2-9d66-696e616c2e6b,rev?*%
%TF.SameCoordinates,Original*%
%TF.FileFunction,Soldermask,Bot*%
%TF.FilePolarity,Negative*%
%FSLAX46Y46*%
G04 Gerber Fmt 4.6, Leading zero omitted, Abs format (unit mm)*
G04 Created by KiCad (PCBNEW 5.1.10-88a1d61d58~90~ubuntu20.04.1) date 2021-12-16 23:27:53*
%MOMM*%
%LPD*%
G01*
G04 APERTURE LIST*
%ADD10C,1.879600*%
G04 APERTURE END LIST*
D10*
%TO.C,J1*%
X160020000Y-84455000D03*
X160020000Y-81661000D03*
X160020000Y-78867000D03*
X160020000Y-76073000D03*
X160020000Y-73279000D03*
X160020000Y-70485000D03*
%TD*%
%TO.C,J2*%
X157353000Y-67945000D03*
X154559000Y-67945000D03*
X151765000Y-67945000D03*
X148971000Y-67945000D03*
X146177000Y-67945000D03*
X143383000Y-67945000D03*
X140589000Y-67945000D03*
X137795000Y-67945000D03*
X135001000Y-67945000D03*
X132207000Y-67945000D03*
X129413000Y-67945000D03*
X126619000Y-67945000D03*
%TD*%
%TO.C,J3*%
X148844000Y-83820000D03*
X146050000Y-83820000D03*
%TD*%
%TO.C,J4*%
X126746000Y-86995000D03*
X129540000Y-86995000D03*
X132334000Y-86995000D03*
X135128000Y-86995000D03*
X137922000Y-86995000D03*
X140716000Y-86995000D03*
X143510000Y-86995000D03*
X146304000Y-86995000D03*
X149098000Y-86995000D03*
X151892000Y-86995000D03*
X154686000Y-86995000D03*
X157480000Y-86995000D03*
%TD*%
%TO.C,J5*%
X137414000Y-83820000D03*
X134620000Y-83820000D03*
%TD*%
%TO.C,R4*%
G36*
G01*
X153245000Y-81005000D02*
X153245000Y-81555000D01*
G75*
G02*
X153045000Y-81755000I-200000J0D01*
G01*
X152645000Y-81755000D01*
G75*
G02*
X152445000Y-81555000I0J200000D01*
G01*
X152445000Y-81005000D01*
G75*
G02*
X152645000Y-80805000I200000J0D01*
G01*
X153045000Y-80805000D01*
G75*
G02*
X153245000Y-81005000I0J-200000D01*
G01*
G37*
G36*
G01*
X154895000Y-81005000D02*
X154895000Y-81555000D01*
G75*
G02*
X154695000Y-81755000I-200000J0D01*
G01*
X154295000Y-81755000D01*
G75*
G02*
X154095000Y-81555000I0J200000D01*
G01*
X154095000Y-81005000D01*
G75*
G02*
X154295000Y-80805000I200000J0D01*
G01*
X154695000Y-80805000D01*
G75*
G02*
X154895000Y-81005000I0J-200000D01*
G01*
G37*
%TD*%
%TO.C,R5*%
G36*
G01*
X153245000Y-82529000D02*
X153245000Y-83079000D01*
G75*
G02*
X153045000Y-83279000I-200000J0D01*
G01*
X152645000Y-83279000D01*
G75*
G02*
X152445000Y-83079000I0J200000D01*
G01*
X152445000Y-82529000D01*
G75*
G02*
X152645000Y-82329000I200000J0D01*
G01*
X153045000Y-82329000D01*
G75*
G02*
X153245000Y-82529000I0J-200000D01*
G01*
G37*
G36*
G01*
X154895000Y-82529000D02*
X154895000Y-83079000D01*
G75*
G02*
X154695000Y-83279000I-200000J0D01*
G01*
X154295000Y-83279000D01*
G75*
G02*
X154095000Y-83079000I0J200000D01*
G01*
X154095000Y-82529000D01*
G75*
G02*
X154295000Y-82329000I200000J0D01*
G01*
X154695000Y-82329000D01*
G75*
G02*
X154895000Y-82529000I0J-200000D01*
G01*
G37*
%TD*%
M02*
