%TF.GenerationSoftware,KiCad,Pcbnew,5.1.10-88a1d61d58~90~ubuntu20.04.1*%
%TF.CreationDate,2021-12-16T23:27:53-03:00*%
%TF.ProjectId,projeto-final,70726f6a-6574-46f2-9d66-696e616c2e6b,rev?*%
%TF.SameCoordinates,Original*%
%TF.FileFunction,Copper,L1,Top*%
%TF.FilePolarity,Positive*%
%FSLAX46Y46*%
G04 Gerber Fmt 4.6, Leading zero omitted, Abs format (unit mm)*
G04 Created by KiCad (PCBNEW 5.1.10-88a1d61d58~90~ubuntu20.04.1) date 2021-12-16 23:27:53*
%MOMM*%
%LPD*%
G01*
G04 APERTURE LIST*
%TA.AperFunction,EtchedComponent*%
%ADD10C,0.100000*%
%TD*%
%TA.AperFunction,ComponentPad*%
%ADD11C,1.879600*%
%TD*%
%TA.AperFunction,SMDPad,CuDef*%
%ADD12R,1.500000X1.500000*%
%TD*%
%TA.AperFunction,SMDPad,CuDef*%
%ADD13C,0.100000*%
%TD*%
%TA.AperFunction,SMDPad,CuDef*%
%ADD14R,0.400000X1.900000*%
%TD*%
%TA.AperFunction,SMDPad,CuDef*%
%ADD15R,0.635000X1.066800*%
%TD*%
%TA.AperFunction,SMDPad,CuDef*%
%ADD16R,1.000000X1.500000*%
%TD*%
%TA.AperFunction,ViaPad*%
%ADD17C,0.800000*%
%TD*%
%TA.AperFunction,Conductor*%
%ADD18C,0.250000*%
%TD*%
%TA.AperFunction,Conductor*%
%ADD19C,0.254000*%
%TD*%
%TA.AperFunction,Conductor*%
%ADD20C,0.100000*%
%TD*%
G04 APERTURE END LIST*
D10*
%TO.C,JP1*%
G36*
X153920000Y-73960000D02*
G01*
X153420000Y-73960000D01*
X153420000Y-73360000D01*
X153920000Y-73360000D01*
X153920000Y-73960000D01*
G37*
%TD*%
%TO.P,C1,2*%
%TO.N,GND*%
%TA.AperFunction,SMDPad,CuDef*%
G36*
G01*
X152770000Y-83804999D02*
X152770000Y-85105001D01*
G75*
G02*
X152520001Y-85355000I-249999J0D01*
G01*
X151869999Y-85355000D01*
G75*
G02*
X151620000Y-85105001I0J249999D01*
G01*
X151620000Y-83804999D01*
G75*
G02*
X151869999Y-83555000I249999J0D01*
G01*
X152520001Y-83555000D01*
G75*
G02*
X152770000Y-83804999I0J-249999D01*
G01*
G37*
%TD.AperFunction*%
%TO.P,C1,1*%
%TO.N,RAW*%
%TA.AperFunction,SMDPad,CuDef*%
G36*
G01*
X155720000Y-83804999D02*
X155720000Y-85105001D01*
G75*
G02*
X155470001Y-85355000I-249999J0D01*
G01*
X154819999Y-85355000D01*
G75*
G02*
X154570000Y-85105001I0J249999D01*
G01*
X154570000Y-83804999D01*
G75*
G02*
X154819999Y-83555000I249999J0D01*
G01*
X155470001Y-83555000D01*
G75*
G02*
X155720000Y-83804999I0J-249999D01*
G01*
G37*
%TD.AperFunction*%
%TD*%
%TO.P,C2,2*%
%TO.N,GND*%
%TA.AperFunction,SMDPad,CuDef*%
G36*
G01*
X155840000Y-71135001D02*
X155840000Y-69834999D01*
G75*
G02*
X156089999Y-69585000I249999J0D01*
G01*
X156740001Y-69585000D01*
G75*
G02*
X156990000Y-69834999I0J-249999D01*
G01*
X156990000Y-71135001D01*
G75*
G02*
X156740001Y-71385000I-249999J0D01*
G01*
X156089999Y-71385000D01*
G75*
G02*
X155840000Y-71135001I0J249999D01*
G01*
G37*
%TD.AperFunction*%
%TO.P,C2,1*%
%TO.N,VCC*%
%TA.AperFunction,SMDPad,CuDef*%
G36*
G01*
X152890000Y-71135001D02*
X152890000Y-69834999D01*
G75*
G02*
X153139999Y-69585000I249999J0D01*
G01*
X153790001Y-69585000D01*
G75*
G02*
X154040000Y-69834999I0J-249999D01*
G01*
X154040000Y-71135001D01*
G75*
G02*
X153790001Y-71385000I-249999J0D01*
G01*
X153139999Y-71385000D01*
G75*
G02*
X152890000Y-71135001I0J249999D01*
G01*
G37*
%TD.AperFunction*%
%TD*%
%TO.P,C3,2*%
%TO.N,GND*%
%TA.AperFunction,SMDPad,CuDef*%
G36*
G01*
X150745000Y-75240000D02*
X150245000Y-75240000D01*
G75*
G02*
X150020000Y-75015000I0J225000D01*
G01*
X150020000Y-74565000D01*
G75*
G02*
X150245000Y-74340000I225000J0D01*
G01*
X150745000Y-74340000D01*
G75*
G02*
X150970000Y-74565000I0J-225000D01*
G01*
X150970000Y-75015000D01*
G75*
G02*
X150745000Y-75240000I-225000J0D01*
G01*
G37*
%TD.AperFunction*%
%TO.P,C3,1*%
%TO.N,VCC*%
%TA.AperFunction,SMDPad,CuDef*%
G36*
G01*
X150745000Y-76790000D02*
X150245000Y-76790000D01*
G75*
G02*
X150020000Y-76565000I0J225000D01*
G01*
X150020000Y-76115000D01*
G75*
G02*
X150245000Y-75890000I225000J0D01*
G01*
X150745000Y-75890000D01*
G75*
G02*
X150970000Y-76115000I0J-225000D01*
G01*
X150970000Y-76565000D01*
G75*
G02*
X150745000Y-76790000I-225000J0D01*
G01*
G37*
%TD.AperFunction*%
%TD*%
%TO.P,C4,2*%
%TO.N,GND*%
%TA.AperFunction,SMDPad,CuDef*%
G36*
G01*
X126675000Y-71505000D02*
X126675000Y-72005000D01*
G75*
G02*
X126450000Y-72230000I-225000J0D01*
G01*
X126000000Y-72230000D01*
G75*
G02*
X125775000Y-72005000I0J225000D01*
G01*
X125775000Y-71505000D01*
G75*
G02*
X126000000Y-71280000I225000J0D01*
G01*
X126450000Y-71280000D01*
G75*
G02*
X126675000Y-71505000I0J-225000D01*
G01*
G37*
%TD.AperFunction*%
%TO.P,C4,1*%
%TO.N,AREF*%
%TA.AperFunction,SMDPad,CuDef*%
G36*
G01*
X128225000Y-71505000D02*
X128225000Y-72005000D01*
G75*
G02*
X128000000Y-72230000I-225000J0D01*
G01*
X127550000Y-72230000D01*
G75*
G02*
X127325000Y-72005000I0J225000D01*
G01*
X127325000Y-71505000D01*
G75*
G02*
X127550000Y-71280000I225000J0D01*
G01*
X128000000Y-71280000D01*
G75*
G02*
X128225000Y-71505000I0J-225000D01*
G01*
G37*
%TD.AperFunction*%
%TD*%
%TO.P,C5,2*%
%TO.N,GND*%
%TA.AperFunction,SMDPad,CuDef*%
G36*
G01*
X132465000Y-77795000D02*
X132965000Y-77795000D01*
G75*
G02*
X133190000Y-78020000I0J-225000D01*
G01*
X133190000Y-78470000D01*
G75*
G02*
X132965000Y-78695000I-225000J0D01*
G01*
X132465000Y-78695000D01*
G75*
G02*
X132240000Y-78470000I0J225000D01*
G01*
X132240000Y-78020000D01*
G75*
G02*
X132465000Y-77795000I225000J0D01*
G01*
G37*
%TD.AperFunction*%
%TO.P,C5,1*%
%TO.N,VCC*%
%TA.AperFunction,SMDPad,CuDef*%
G36*
G01*
X132465000Y-76245000D02*
X132965000Y-76245000D01*
G75*
G02*
X133190000Y-76470000I0J-225000D01*
G01*
X133190000Y-76920000D01*
G75*
G02*
X132965000Y-77145000I-225000J0D01*
G01*
X132465000Y-77145000D01*
G75*
G02*
X132240000Y-76920000I0J225000D01*
G01*
X132240000Y-76470000D01*
G75*
G02*
X132465000Y-76245000I225000J0D01*
G01*
G37*
%TD.AperFunction*%
%TD*%
%TO.P,C6,1*%
%TO.N,DTR*%
%TA.AperFunction,SMDPad,CuDef*%
G36*
G01*
X157865000Y-81960000D02*
X158365000Y-81960000D01*
G75*
G02*
X158590000Y-82185000I0J-225000D01*
G01*
X158590000Y-82635000D01*
G75*
G02*
X158365000Y-82860000I-225000J0D01*
G01*
X157865000Y-82860000D01*
G75*
G02*
X157640000Y-82635000I0J225000D01*
G01*
X157640000Y-82185000D01*
G75*
G02*
X157865000Y-81960000I225000J0D01*
G01*
G37*
%TD.AperFunction*%
%TO.P,C6,2*%
%TO.N,RESET*%
%TA.AperFunction,SMDPad,CuDef*%
G36*
G01*
X157865000Y-83510000D02*
X158365000Y-83510000D01*
G75*
G02*
X158590000Y-83735000I0J-225000D01*
G01*
X158590000Y-84185000D01*
G75*
G02*
X158365000Y-84410000I-225000J0D01*
G01*
X157865000Y-84410000D01*
G75*
G02*
X157640000Y-84185000I0J225000D01*
G01*
X157640000Y-83735000D01*
G75*
G02*
X157865000Y-83510000I225000J0D01*
G01*
G37*
%TD.AperFunction*%
%TD*%
%TO.P,D1,2*%
%TO.N,Net-(D1-Pad2)*%
%TA.AperFunction,SMDPad,CuDef*%
G36*
G01*
X150751250Y-78542500D02*
X150238750Y-78542500D01*
G75*
G02*
X150020000Y-78323750I0J218750D01*
G01*
X150020000Y-77886250D01*
G75*
G02*
X150238750Y-77667500I218750J0D01*
G01*
X150751250Y-77667500D01*
G75*
G02*
X150970000Y-77886250I0J-218750D01*
G01*
X150970000Y-78323750D01*
G75*
G02*
X150751250Y-78542500I-218750J0D01*
G01*
G37*
%TD.AperFunction*%
%TO.P,D1,1*%
%TO.N,Net-(D1-Pad1)*%
%TA.AperFunction,SMDPad,CuDef*%
G36*
G01*
X150751250Y-80117500D02*
X150238750Y-80117500D01*
G75*
G02*
X150020000Y-79898750I0J218750D01*
G01*
X150020000Y-79461250D01*
G75*
G02*
X150238750Y-79242500I218750J0D01*
G01*
X150751250Y-79242500D01*
G75*
G02*
X150970000Y-79461250I0J-218750D01*
G01*
X150970000Y-79898750D01*
G75*
G02*
X150751250Y-80117500I-218750J0D01*
G01*
G37*
%TD.AperFunction*%
%TD*%
D11*
%TO.P,J1,6*%
%TO.N,DTR*%
X160020000Y-84455000D03*
%TO.P,J1,5*%
%TO.N,TXO*%
X160020000Y-81661000D03*
%TO.P,J1,4*%
%TO.N,RXI*%
X160020000Y-78867000D03*
%TO.P,J1,3*%
%TO.N,VCC*%
X160020000Y-76073000D03*
%TO.P,J1,2*%
%TO.N,GND*%
X160020000Y-73279000D03*
%TO.P,J1,1*%
X160020000Y-70485000D03*
%TD*%
%TO.P,J2,12*%
%TO.N,TXO*%
X157353000Y-67945000D03*
%TO.P,J2,11*%
%TO.N,RXI*%
X154559000Y-67945000D03*
%TO.P,J2,10*%
%TO.N,RESET*%
X151765000Y-67945000D03*
%TO.P,J2,9*%
%TO.N,GND*%
X148971000Y-67945000D03*
%TO.P,J2,8*%
%TO.N,D2*%
X146177000Y-67945000D03*
%TO.P,J2,7*%
%TO.N,D3*%
X143383000Y-67945000D03*
%TO.P,J2,6*%
%TO.N,D4*%
X140589000Y-67945000D03*
%TO.P,J2,5*%
%TO.N,D5*%
X137795000Y-67945000D03*
%TO.P,J2,4*%
%TO.N,D6*%
X135001000Y-67945000D03*
%TO.P,J2,3*%
%TO.N,D7*%
X132207000Y-67945000D03*
%TO.P,J2,2*%
%TO.N,D8*%
X129413000Y-67945000D03*
%TO.P,J2,1*%
%TO.N,D9*%
X126619000Y-67945000D03*
%TD*%
%TO.P,J3,2*%
%TO.N,A5*%
X148844000Y-83820000D03*
%TO.P,J3,1*%
%TO.N,A4*%
X146050000Y-83820000D03*
%TD*%
%TO.P,J4,12*%
%TO.N,D10*%
X126746000Y-86995000D03*
%TO.P,J4,11*%
%TO.N,MOSI*%
X129540000Y-86995000D03*
%TO.P,J4,10*%
%TO.N,MISO*%
X132334000Y-86995000D03*
%TO.P,J4,9*%
%TO.N,SCK*%
X135128000Y-86995000D03*
%TO.P,J4,8*%
%TO.N,A0*%
X137922000Y-86995000D03*
%TO.P,J4,7*%
%TO.N,A1*%
X140716000Y-86995000D03*
%TO.P,J4,6*%
%TO.N,A2*%
X143510000Y-86995000D03*
%TO.P,J4,5*%
%TO.N,A3*%
X146304000Y-86995000D03*
%TO.P,J4,4*%
%TO.N,VCC*%
X149098000Y-86995000D03*
%TO.P,J4,3*%
%TO.N,RESET*%
X151892000Y-86995000D03*
%TO.P,J4,2*%
%TO.N,GND*%
X154686000Y-86995000D03*
%TO.P,J4,1*%
%TO.N,RAW*%
X157480000Y-86995000D03*
%TD*%
%TO.P,J5,2*%
%TO.N,A7*%
X137414000Y-83820000D03*
%TO.P,J5,1*%
%TO.N,A6*%
X134620000Y-83820000D03*
%TD*%
%TO.P,R3,2*%
%TO.N,SCK*%
%TA.AperFunction,SMDPad,CuDef*%
G36*
G01*
X130600000Y-83460000D02*
X130600000Y-82910000D01*
G75*
G02*
X130800000Y-82710000I200000J0D01*
G01*
X131200000Y-82710000D01*
G75*
G02*
X131400000Y-82910000I0J-200000D01*
G01*
X131400000Y-83460000D01*
G75*
G02*
X131200000Y-83660000I-200000J0D01*
G01*
X130800000Y-83660000D01*
G75*
G02*
X130600000Y-83460000I0J200000D01*
G01*
G37*
%TD.AperFunction*%
%TO.P,R3,1*%
%TO.N,Net-(D2-Pad2)*%
%TA.AperFunction,SMDPad,CuDef*%
G36*
G01*
X128950000Y-83460000D02*
X128950000Y-82910000D01*
G75*
G02*
X129150000Y-82710000I200000J0D01*
G01*
X129550000Y-82710000D01*
G75*
G02*
X129750000Y-82910000I0J-200000D01*
G01*
X129750000Y-83460000D01*
G75*
G02*
X129550000Y-83660000I-200000J0D01*
G01*
X129150000Y-83660000D01*
G75*
G02*
X128950000Y-83460000I0J200000D01*
G01*
G37*
%TD.AperFunction*%
%TD*%
D12*
%TO.P,SW1,2*%
%TO.N,RESET*%
X127635000Y-73570000D03*
%TO.P,SW1,1*%
%TO.N,GND*%
X127635000Y-81370000D03*
%TD*%
%TA.AperFunction,SMDPad,CuDef*%
D13*
%TO.P,U2,32*%
%TO.N,D2*%
G36*
X145829963Y-78124074D02*
G01*
X146218872Y-77735165D01*
X147350243Y-78866536D01*
X146961334Y-79255445D01*
X145829963Y-78124074D01*
G37*
%TD.AperFunction*%
%TA.AperFunction,SMDPad,CuDef*%
%TO.P,U2,31*%
%TO.N,TXO*%
G36*
X145264277Y-78689759D02*
G01*
X145653186Y-78300850D01*
X146784557Y-79432221D01*
X146395648Y-79821130D01*
X145264277Y-78689759D01*
G37*
%TD.AperFunction*%
%TA.AperFunction,SMDPad,CuDef*%
%TO.P,U2,30*%
%TO.N,RXI*%
G36*
X144698592Y-79255445D02*
G01*
X145087501Y-78866536D01*
X146218872Y-79997907D01*
X145829963Y-80386816D01*
X144698592Y-79255445D01*
G37*
%TD.AperFunction*%
%TA.AperFunction,SMDPad,CuDef*%
%TO.P,U2,29*%
%TO.N,RESET*%
G36*
X144132907Y-79821130D02*
G01*
X144521816Y-79432221D01*
X145653187Y-80563592D01*
X145264278Y-80952501D01*
X144132907Y-79821130D01*
G37*
%TD.AperFunction*%
%TA.AperFunction,SMDPad,CuDef*%
%TO.P,U2,28*%
%TO.N,A5*%
G36*
X143567221Y-80386816D02*
G01*
X143956130Y-79997907D01*
X145087501Y-81129278D01*
X144698592Y-81518187D01*
X143567221Y-80386816D01*
G37*
%TD.AperFunction*%
%TA.AperFunction,SMDPad,CuDef*%
%TO.P,U2,27*%
%TO.N,A4*%
G36*
X143001536Y-80952501D02*
G01*
X143390445Y-80563592D01*
X144521816Y-81694963D01*
X144132907Y-82083872D01*
X143001536Y-80952501D01*
G37*
%TD.AperFunction*%
%TA.AperFunction,SMDPad,CuDef*%
%TO.P,U2,26*%
%TO.N,A3*%
G36*
X142435850Y-81518186D02*
G01*
X142824759Y-81129277D01*
X143956130Y-82260648D01*
X143567221Y-82649557D01*
X142435850Y-81518186D01*
G37*
%TD.AperFunction*%
%TA.AperFunction,SMDPad,CuDef*%
%TO.P,U2,25*%
%TO.N,A2*%
G36*
X141870165Y-82083872D02*
G01*
X142259074Y-81694963D01*
X143390445Y-82826334D01*
X143001536Y-83215243D01*
X141870165Y-82083872D01*
G37*
%TD.AperFunction*%
%TA.AperFunction,SMDPad,CuDef*%
%TO.P,U2,24*%
%TO.N,A1*%
G36*
X140950926Y-81694963D02*
G01*
X141339835Y-82083872D01*
X140208464Y-83215243D01*
X139819555Y-82826334D01*
X140950926Y-81694963D01*
G37*
%TD.AperFunction*%
%TA.AperFunction,SMDPad,CuDef*%
%TO.P,U2,23*%
%TO.N,A0*%
G36*
X140385241Y-81129277D02*
G01*
X140774150Y-81518186D01*
X139642779Y-82649557D01*
X139253870Y-82260648D01*
X140385241Y-81129277D01*
G37*
%TD.AperFunction*%
%TA.AperFunction,SMDPad,CuDef*%
%TO.P,U2,22*%
%TO.N,A7*%
G36*
X139819555Y-80563592D02*
G01*
X140208464Y-80952501D01*
X139077093Y-82083872D01*
X138688184Y-81694963D01*
X139819555Y-80563592D01*
G37*
%TD.AperFunction*%
%TA.AperFunction,SMDPad,CuDef*%
%TO.P,U2,21*%
%TO.N,GND*%
G36*
X139253870Y-79997907D02*
G01*
X139642779Y-80386816D01*
X138511408Y-81518187D01*
X138122499Y-81129278D01*
X139253870Y-79997907D01*
G37*
%TD.AperFunction*%
%TA.AperFunction,SMDPad,CuDef*%
%TO.P,U2,20*%
%TO.N,AREF*%
G36*
X138688184Y-79432221D02*
G01*
X139077093Y-79821130D01*
X137945722Y-80952501D01*
X137556813Y-80563592D01*
X138688184Y-79432221D01*
G37*
%TD.AperFunction*%
%TA.AperFunction,SMDPad,CuDef*%
%TO.P,U2,19*%
%TO.N,A6*%
G36*
X138122499Y-78866536D02*
G01*
X138511408Y-79255445D01*
X137380037Y-80386816D01*
X136991128Y-79997907D01*
X138122499Y-78866536D01*
G37*
%TD.AperFunction*%
%TA.AperFunction,SMDPad,CuDef*%
%TO.P,U2,18*%
%TO.N,VCC*%
G36*
X137556814Y-78300850D02*
G01*
X137945723Y-78689759D01*
X136814352Y-79821130D01*
X136425443Y-79432221D01*
X137556814Y-78300850D01*
G37*
%TD.AperFunction*%
%TA.AperFunction,SMDPad,CuDef*%
%TO.P,U2,17*%
%TO.N,SCK*%
G36*
X136991128Y-77735165D02*
G01*
X137380037Y-78124074D01*
X136248666Y-79255445D01*
X135859757Y-78866536D01*
X136991128Y-77735165D01*
G37*
%TD.AperFunction*%
%TA.AperFunction,SMDPad,CuDef*%
%TO.P,U2,16*%
%TO.N,MISO*%
G36*
X135859757Y-76073464D02*
G01*
X136248666Y-75684555D01*
X137380037Y-76815926D01*
X136991128Y-77204835D01*
X135859757Y-76073464D01*
G37*
%TD.AperFunction*%
%TA.AperFunction,SMDPad,CuDef*%
%TO.P,U2,15*%
%TO.N,MOSI*%
G36*
X136425443Y-75507779D02*
G01*
X136814352Y-75118870D01*
X137945723Y-76250241D01*
X137556814Y-76639150D01*
X136425443Y-75507779D01*
G37*
%TD.AperFunction*%
%TA.AperFunction,SMDPad,CuDef*%
%TO.P,U2,14*%
%TO.N,D10*%
G36*
X136991128Y-74942093D02*
G01*
X137380037Y-74553184D01*
X138511408Y-75684555D01*
X138122499Y-76073464D01*
X136991128Y-74942093D01*
G37*
%TD.AperFunction*%
%TA.AperFunction,SMDPad,CuDef*%
%TO.P,U2,13*%
%TO.N,D9*%
G36*
X137556813Y-74376408D02*
G01*
X137945722Y-73987499D01*
X139077093Y-75118870D01*
X138688184Y-75507779D01*
X137556813Y-74376408D01*
G37*
%TD.AperFunction*%
%TA.AperFunction,SMDPad,CuDef*%
%TO.P,U2,12*%
%TO.N,D8*%
G36*
X138122499Y-73810722D02*
G01*
X138511408Y-73421813D01*
X139642779Y-74553184D01*
X139253870Y-74942093D01*
X138122499Y-73810722D01*
G37*
%TD.AperFunction*%
%TA.AperFunction,SMDPad,CuDef*%
%TO.P,U2,11*%
%TO.N,D7*%
G36*
X138688184Y-73245037D02*
G01*
X139077093Y-72856128D01*
X140208464Y-73987499D01*
X139819555Y-74376408D01*
X138688184Y-73245037D01*
G37*
%TD.AperFunction*%
%TA.AperFunction,SMDPad,CuDef*%
%TO.P,U2,10*%
%TO.N,D6*%
G36*
X139253870Y-72679352D02*
G01*
X139642779Y-72290443D01*
X140774150Y-73421814D01*
X140385241Y-73810723D01*
X139253870Y-72679352D01*
G37*
%TD.AperFunction*%
%TA.AperFunction,SMDPad,CuDef*%
%TO.P,U2,9*%
%TO.N,D5*%
G36*
X139819555Y-72113666D02*
G01*
X140208464Y-71724757D01*
X141339835Y-72856128D01*
X140950926Y-73245037D01*
X139819555Y-72113666D01*
G37*
%TD.AperFunction*%
%TA.AperFunction,SMDPad,CuDef*%
%TO.P,U2,8*%
%TO.N,Net-(U2-Pad8)*%
G36*
X143001536Y-71724757D02*
G01*
X143390445Y-72113666D01*
X142259074Y-73245037D01*
X141870165Y-72856128D01*
X143001536Y-71724757D01*
G37*
%TD.AperFunction*%
%TA.AperFunction,SMDPad,CuDef*%
%TO.P,U2,7*%
%TO.N,Net-(U2-Pad7)*%
G36*
X143567221Y-72290443D02*
G01*
X143956130Y-72679352D01*
X142824759Y-73810723D01*
X142435850Y-73421814D01*
X143567221Y-72290443D01*
G37*
%TD.AperFunction*%
%TA.AperFunction,SMDPad,CuDef*%
%TO.P,U2,6*%
%TO.N,VCC*%
G36*
X144132907Y-72856128D02*
G01*
X144521816Y-73245037D01*
X143390445Y-74376408D01*
X143001536Y-73987499D01*
X144132907Y-72856128D01*
G37*
%TD.AperFunction*%
%TA.AperFunction,SMDPad,CuDef*%
%TO.P,U2,5*%
%TO.N,GND*%
G36*
X144698592Y-73421813D02*
G01*
X145087501Y-73810722D01*
X143956130Y-74942093D01*
X143567221Y-74553184D01*
X144698592Y-73421813D01*
G37*
%TD.AperFunction*%
%TA.AperFunction,SMDPad,CuDef*%
%TO.P,U2,4*%
%TO.N,VCC*%
G36*
X145264278Y-73987499D02*
G01*
X145653187Y-74376408D01*
X144521816Y-75507779D01*
X144132907Y-75118870D01*
X145264278Y-73987499D01*
G37*
%TD.AperFunction*%
%TA.AperFunction,SMDPad,CuDef*%
%TO.P,U2,3*%
%TO.N,GND*%
G36*
X145829963Y-74553184D02*
G01*
X146218872Y-74942093D01*
X145087501Y-76073464D01*
X144698592Y-75684555D01*
X145829963Y-74553184D01*
G37*
%TD.AperFunction*%
%TA.AperFunction,SMDPad,CuDef*%
%TO.P,U2,2*%
%TO.N,D4*%
G36*
X146395648Y-75118870D02*
G01*
X146784557Y-75507779D01*
X145653186Y-76639150D01*
X145264277Y-76250241D01*
X146395648Y-75118870D01*
G37*
%TD.AperFunction*%
%TA.AperFunction,SMDPad,CuDef*%
%TO.P,U2,1*%
%TO.N,D3*%
G36*
X146961334Y-75684555D02*
G01*
X147350243Y-76073464D01*
X146218872Y-77204835D01*
X145829963Y-76815926D01*
X146961334Y-75684555D01*
G37*
%TD.AperFunction*%
%TD*%
D14*
%TO.P,Y1,3*%
%TO.N,Net-(U2-Pad8)*%
X149796200Y-71094600D03*
%TO.P,Y1,2*%
%TO.N,GND*%
X148596200Y-71094600D03*
%TO.P,Y1,1*%
%TO.N,Net-(U2-Pad7)*%
X147396200Y-71094600D03*
%TD*%
D15*
%TO.P,U1,5*%
%TO.N,Net-(D1-Pad2)*%
X154619960Y-76370180D03*
%TO.P,U1,4*%
%TO.N,Net-(U1-Pad4)*%
X152720040Y-76370180D03*
%TO.P,U1,3*%
%TO.N,RAW*%
X154619960Y-78569820D03*
%TO.P,U1,2*%
%TO.N,GND*%
X153670000Y-78569820D03*
%TO.P,U1,1*%
%TO.N,RAW*%
X152720040Y-78569820D03*
%TD*%
%TO.P,D2,2*%
%TO.N,Net-(D2-Pad2)*%
%TA.AperFunction,SMDPad,CuDef*%
G36*
G01*
X127350000Y-83441250D02*
X127350000Y-82928750D01*
G75*
G02*
X127568750Y-82710000I218750J0D01*
G01*
X128006250Y-82710000D01*
G75*
G02*
X128225000Y-82928750I0J-218750D01*
G01*
X128225000Y-83441250D01*
G75*
G02*
X128006250Y-83660000I-218750J0D01*
G01*
X127568750Y-83660000D01*
G75*
G02*
X127350000Y-83441250I0J218750D01*
G01*
G37*
%TD.AperFunction*%
%TO.P,D2,1*%
%TO.N,GND*%
%TA.AperFunction,SMDPad,CuDef*%
G36*
G01*
X125775000Y-83441250D02*
X125775000Y-82928750D01*
G75*
G02*
X125993750Y-82710000I218750J0D01*
G01*
X126431250Y-82710000D01*
G75*
G02*
X126650000Y-82928750I0J-218750D01*
G01*
X126650000Y-83441250D01*
G75*
G02*
X126431250Y-83660000I-218750J0D01*
G01*
X125993750Y-83660000D01*
G75*
G02*
X125775000Y-83441250I0J218750D01*
G01*
G37*
%TD.AperFunction*%
%TD*%
%TO.P,R1,2*%
%TO.N,GND*%
%TA.AperFunction,SMDPad,CuDef*%
G36*
G01*
X155935000Y-77895000D02*
X156485000Y-77895000D01*
G75*
G02*
X156685000Y-78095000I0J-200000D01*
G01*
X156685000Y-78495000D01*
G75*
G02*
X156485000Y-78695000I-200000J0D01*
G01*
X155935000Y-78695000D01*
G75*
G02*
X155735000Y-78495000I0J200000D01*
G01*
X155735000Y-78095000D01*
G75*
G02*
X155935000Y-77895000I200000J0D01*
G01*
G37*
%TD.AperFunction*%
%TO.P,R1,1*%
%TO.N,Net-(D1-Pad1)*%
%TA.AperFunction,SMDPad,CuDef*%
G36*
G01*
X155935000Y-76245000D02*
X156485000Y-76245000D01*
G75*
G02*
X156685000Y-76445000I0J-200000D01*
G01*
X156685000Y-76845000D01*
G75*
G02*
X156485000Y-77045000I-200000J0D01*
G01*
X155935000Y-77045000D01*
G75*
G02*
X155735000Y-76845000I0J200000D01*
G01*
X155735000Y-76445000D01*
G75*
G02*
X155935000Y-76245000I200000J0D01*
G01*
G37*
%TD.AperFunction*%
%TD*%
%TO.P,R2,2*%
%TO.N,RESET*%
%TA.AperFunction,SMDPad,CuDef*%
G36*
G01*
X129750000Y-71480000D02*
X129750000Y-72030000D01*
G75*
G02*
X129550000Y-72230000I-200000J0D01*
G01*
X129150000Y-72230000D01*
G75*
G02*
X128950000Y-72030000I0J200000D01*
G01*
X128950000Y-71480000D01*
G75*
G02*
X129150000Y-71280000I200000J0D01*
G01*
X129550000Y-71280000D01*
G75*
G02*
X129750000Y-71480000I0J-200000D01*
G01*
G37*
%TD.AperFunction*%
%TO.P,R2,1*%
%TO.N,VCC*%
%TA.AperFunction,SMDPad,CuDef*%
G36*
G01*
X131400000Y-71480000D02*
X131400000Y-72030000D01*
G75*
G02*
X131200000Y-72230000I-200000J0D01*
G01*
X130800000Y-72230000D01*
G75*
G02*
X130600000Y-72030000I0J200000D01*
G01*
X130600000Y-71480000D01*
G75*
G02*
X130800000Y-71280000I200000J0D01*
G01*
X131200000Y-71280000D01*
G75*
G02*
X131400000Y-71480000I0J-200000D01*
G01*
G37*
%TD.AperFunction*%
%TD*%
D16*
%TO.P,JP1,1*%
%TO.N,Net-(D1-Pad2)*%
X154320000Y-73660000D03*
%TO.P,JP1,2*%
%TO.N,VCC*%
X153020000Y-73660000D03*
%TD*%
D17*
%TO.N,GND*%
X132715000Y-85090000D03*
X153639092Y-84983969D03*
X140335000Y-80100010D03*
X147320000Y-74930000D03*
X145415000Y-72390000D03*
X156845000Y-84955000D03*
X160020000Y-67945000D03*
X156845000Y-74930000D03*
X156847542Y-82730011D03*
X157480000Y-69850000D03*
X157480000Y-78105000D03*
X128270000Y-85090000D03*
X139446000Y-70358000D03*
X143510000Y-70358000D03*
%TO.N,RAW*%
X155575000Y-82635033D03*
X155575000Y-80010000D03*
%TO.N,VCC*%
X149225000Y-80735000D03*
X156845000Y-73024996D03*
X158846502Y-74345805D03*
%TO.N,RXI*%
X143690023Y-78740431D03*
%TO.N,D4*%
X142240000Y-76200000D03*
%TO.N,D3*%
X143510000Y-76925010D03*
%TO.N,D2*%
X147706140Y-77164375D03*
%TO.N,RESET*%
X130415166Y-72874844D03*
X142239992Y-80010000D03*
%TO.N,D10*%
X125984000Y-69850000D03*
%TO.N,MOSI*%
X138991442Y-76113731D03*
%TO.N,MISO*%
X139704978Y-76834328D03*
%TO.N,SCK*%
X135890000Y-78105000D03*
X133985000Y-80010000D03*
%TO.N,AREF*%
X128269966Y-70485000D03*
X141514988Y-78722166D03*
%TD*%
D18*
%TO.N,GND*%
X152195000Y-85139000D02*
X152195000Y-85090000D01*
X126212500Y-82792500D02*
X127635000Y-81370000D01*
X126212500Y-83185000D02*
X126212500Y-82792500D01*
X126225000Y-79960000D02*
X127635000Y-81370000D01*
X126225000Y-71755000D02*
X126225000Y-79960000D01*
X130810000Y-81915000D02*
X132715000Y-80010000D01*
X132715000Y-80010000D02*
X132715000Y-78245000D01*
X128180000Y-81915000D02*
X130810000Y-81915000D01*
X127635000Y-81370000D02*
X128180000Y-81915000D01*
X153110123Y-84455000D02*
X153639092Y-84983969D01*
X152195000Y-84455000D02*
X153110123Y-84455000D01*
X138882639Y-80758047D02*
X139540676Y-80100010D01*
X139540676Y-80100010D02*
X140335000Y-80100010D01*
X148590000Y-72320000D02*
X148590000Y-71120000D01*
X147183860Y-74793860D02*
X147320000Y-74930000D01*
X145978196Y-74793860D02*
X147183860Y-74793860D01*
X145458732Y-75313324D02*
X145978196Y-74793860D01*
X145415000Y-73094314D02*
X145415000Y-72390000D01*
X144327361Y-74181953D02*
X145415000Y-73094314D01*
X155626419Y-77711419D02*
X156210000Y-78295000D01*
X153670000Y-78083878D02*
X154042459Y-77711419D01*
X153670000Y-78569820D02*
X153670000Y-78083878D01*
X154042459Y-77711419D02*
X155626419Y-77711419D01*
X157480000Y-75565000D02*
X156845000Y-74930000D01*
X156845000Y-84955000D02*
X156845000Y-82732553D01*
X156845000Y-82732553D02*
X156847542Y-82730011D01*
X157050000Y-69850000D02*
X157480000Y-69850000D01*
X156415000Y-70485000D02*
X157050000Y-69850000D01*
X150495000Y-74295000D02*
X150495000Y-74790000D01*
X148590000Y-72390000D02*
X150495000Y-74295000D01*
X148590000Y-72320000D02*
X148590000Y-72390000D01*
X157290000Y-78295000D02*
X157480000Y-78105000D01*
X156210000Y-78295000D02*
X157290000Y-78295000D01*
X157480000Y-75565000D02*
X157480000Y-78105000D01*
X128117500Y-85090000D02*
X128270000Y-85090000D01*
X126212500Y-83185000D02*
X128117500Y-85090000D01*
X132715000Y-85090000D02*
X128270000Y-85090000D01*
X148520000Y-72390000D02*
X148590000Y-72320000D01*
X145415000Y-72390000D02*
X148520000Y-72390000D01*
X140011685Y-70358000D02*
X143510000Y-70358000D01*
X139446000Y-70358000D02*
X140011685Y-70358000D01*
%TO.N,RAW*%
X155575000Y-83820000D02*
X155575000Y-82635033D01*
X155145000Y-84250000D02*
X155575000Y-83820000D01*
X152720040Y-78569820D02*
X152720040Y-79060040D01*
X153088221Y-79428221D02*
X154251779Y-79428221D01*
X152720040Y-79060040D02*
X153088221Y-79428221D01*
X154619960Y-79060040D02*
X154619960Y-78569820D01*
X154251779Y-79428221D02*
X154619960Y-79060040D01*
X154619960Y-79054960D02*
X155575000Y-80010000D01*
X154619960Y-78569820D02*
X154619960Y-79054960D01*
%TO.N,VCC*%
X150495000Y-76340000D02*
X150495000Y-76185000D01*
X144893047Y-74747639D02*
X144962361Y-74747639D01*
X133190000Y-76695000D02*
X132715000Y-76695000D01*
X137185583Y-79060990D02*
X136666118Y-79580455D01*
X137185583Y-79060990D02*
X136236573Y-80010000D01*
X140680839Y-77124161D02*
X140680839Y-75408159D01*
X138141573Y-78105000D02*
X139700000Y-78105000D01*
X137185583Y-79060990D02*
X138141573Y-78105000D01*
X139700000Y-78105000D02*
X140680839Y-77124161D01*
X145412512Y-74228174D02*
X145481826Y-74228174D01*
X144893047Y-74747639D02*
X145412512Y-74228174D01*
X145481826Y-74228174D02*
X146050000Y-73660000D01*
X153020000Y-73660000D02*
X153020000Y-73010000D01*
X143761676Y-73616268D02*
X142875000Y-74502944D01*
X142875000Y-74502944D02*
X142875000Y-74930000D01*
X143212103Y-75267103D02*
X144373583Y-75267103D01*
X144373583Y-75267103D02*
X144893047Y-74747639D01*
X142875000Y-74930000D02*
X143212103Y-75267103D01*
X151892000Y-74930000D02*
X151892000Y-74168000D01*
X150495000Y-76327000D02*
X151892000Y-74930000D01*
X150495000Y-76340000D02*
X150495000Y-76327000D01*
%TO.N,DTR*%
X158610000Y-82410000D02*
X160020000Y-83820000D01*
X158115000Y-82410000D02*
X158610000Y-82410000D01*
%TO.N,Net-(D1-Pad1)*%
X155765000Y-76645000D02*
X156210000Y-76645000D01*
X155575000Y-76835000D02*
X155765000Y-76645000D01*
X155575000Y-76851042D02*
X155575000Y-76835000D01*
X155164634Y-77261408D02*
X155575000Y-76851042D01*
X152608592Y-77261408D02*
X155164634Y-77261408D01*
X150495000Y-79375000D02*
X152608592Y-77261408D01*
X150495000Y-79680000D02*
X150495000Y-79375000D01*
%TO.N,Net-(D1-Pad2)*%
X154619960Y-73959960D02*
X154320000Y-73660000D01*
X154619960Y-76370180D02*
X154619960Y-75244960D01*
X154619960Y-74863960D02*
X154619960Y-73959960D01*
X154619960Y-75244960D02*
X154619960Y-74863960D01*
X154238960Y-75244960D02*
X154619960Y-74863960D01*
X152501199Y-75244960D02*
X154238960Y-75244960D01*
X151638000Y-76108159D02*
X152501199Y-75244960D01*
X151638000Y-76962000D02*
X151638000Y-76108159D01*
X150495000Y-78105000D02*
X151638000Y-76962000D01*
%TO.N,Net-(D2-Pad2)*%
X129350000Y-83185000D02*
X127787500Y-83185000D01*
%TO.N,RXI*%
X145458732Y-79626676D02*
X144572487Y-78740431D01*
X144572487Y-78740431D02*
X143690023Y-78740431D01*
%TO.N,TXO*%
X157950010Y-67907010D02*
X157353000Y-67310000D01*
X160020000Y-80825002D02*
X160020000Y-81661000D01*
X158419086Y-79224088D02*
X160020000Y-80825002D01*
X157734000Y-74041000D02*
X158292799Y-73482201D01*
X157734000Y-74890500D02*
X157734000Y-74041000D01*
X158419086Y-75575586D02*
X157734000Y-74890500D01*
X158292799Y-68884799D02*
X157353000Y-67945000D01*
X158292799Y-73482201D02*
X158292799Y-68884799D01*
X158419086Y-79224088D02*
X158419086Y-75575586D01*
X158419086Y-80340914D02*
X158419086Y-79224088D01*
X156849977Y-81910023D02*
X158419086Y-80340914D01*
X148729236Y-81910023D02*
X156849977Y-81910023D01*
X146024417Y-79205204D02*
X148729236Y-81910023D01*
X146024417Y-79060990D02*
X146024417Y-79205204D01*
%TO.N,D9*%
X126619000Y-67310000D02*
X126619000Y-67437000D01*
X133817832Y-70248518D02*
X134054314Y-70485000D01*
X130573518Y-70248518D02*
X133817832Y-70248518D01*
X129540000Y-69215000D02*
X130573518Y-70248518D01*
X134054314Y-70485000D02*
X138316953Y-74747639D01*
X127889000Y-69215000D02*
X129540000Y-69215000D01*
X126619000Y-67945000D02*
X127889000Y-69215000D01*
%TO.N,D8*%
X131196511Y-69665011D02*
X129413000Y-67881500D01*
X138882639Y-74181953D02*
X134365697Y-69665011D01*
X134365697Y-69665011D02*
X131196511Y-69665011D01*
%TO.N,D7*%
X133350000Y-69215000D02*
X132207000Y-68072000D01*
X135047056Y-69215000D02*
X133350000Y-69215000D01*
X139448324Y-73616268D02*
X135047056Y-69215000D01*
X132207000Y-68072000D02*
X132207000Y-67310000D01*
%TO.N,D6*%
X140014010Y-73050583D02*
X135001000Y-68037573D01*
%TO.N,D5*%
X137795000Y-69850000D02*
X137795000Y-67945000D01*
X140429897Y-72484897D02*
X137795000Y-69850000D01*
X140579695Y-72484897D02*
X140429897Y-72484897D01*
%TO.N,D4*%
X146024417Y-75879010D02*
X145416428Y-76486999D01*
X145416428Y-76486999D02*
X144235013Y-76486999D01*
X144235013Y-76486999D02*
X143948014Y-76200000D01*
X143948014Y-76200000D02*
X142240000Y-76200000D01*
%TO.N,D3*%
X145709789Y-77325009D02*
X143909999Y-77325009D01*
X146590103Y-76444695D02*
X145709789Y-77325009D01*
X143909999Y-77325009D02*
X143510000Y-76925010D01*
%TO.N,D2*%
X146590103Y-78495305D02*
X147706140Y-77379268D01*
X147706140Y-77379268D02*
X147706140Y-77164375D01*
%TO.N,RESET*%
X129350000Y-72580000D02*
X129350000Y-71755000D01*
X128360000Y-73570000D02*
X129350000Y-72580000D01*
X127635000Y-73570000D02*
X128360000Y-73570000D01*
X130415166Y-72820166D02*
X130415166Y-72874844D01*
X129350000Y-71755000D02*
X130415166Y-72820166D01*
X144893047Y-80192361D02*
X144310687Y-79610001D01*
X144310687Y-79610001D02*
X142639991Y-79610001D01*
X142639991Y-79610001D02*
X142239992Y-80010000D01*
X157524990Y-85680010D02*
X158115000Y-85090000D01*
X158115000Y-85090000D02*
X158115000Y-83960000D01*
X151130000Y-83764774D02*
X151130000Y-86868000D01*
X149725260Y-82360034D02*
X151130000Y-83764774D01*
X148470759Y-82360034D02*
X149725260Y-82360034D01*
X147390725Y-81280000D02*
X148470759Y-82360034D01*
X145980686Y-81280000D02*
X147390725Y-81280000D01*
X153841990Y-85680010D02*
X157524990Y-85680010D01*
X151892000Y-87630000D02*
X153841990Y-85680010D01*
X151130000Y-86868000D02*
X151892000Y-87630000D01*
X144893047Y-80192361D02*
X145980686Y-81280000D01*
%TO.N,A4*%
X146050000Y-83820000D02*
X146050000Y-83185000D01*
X145622944Y-83185000D02*
X143761676Y-81323732D01*
X146050000Y-83185000D02*
X145622944Y-83185000D01*
%TO.N,A5*%
X145484314Y-81915000D02*
X144327361Y-80758047D01*
X146939000Y-81915000D02*
X145484314Y-81915000D01*
X148844000Y-83820000D02*
X146939000Y-81915000D01*
%TO.N,D10*%
X126074032Y-69759968D02*
X125984000Y-69850000D01*
X129252973Y-69759968D02*
X126074032Y-69759968D01*
X130191533Y-70698528D02*
X129252973Y-69759968D01*
X133136472Y-70698528D02*
X130191533Y-70698528D01*
X137751268Y-75313324D02*
X133136472Y-70698528D01*
%TO.N,MOSI*%
X137820303Y-76513730D02*
X138591443Y-76513730D01*
X138591443Y-76513730D02*
X138991442Y-76113731D01*
X137185583Y-75879010D02*
X137820303Y-76513730D01*
%TO.N,MISO*%
X137409529Y-77234327D02*
X139304979Y-77234327D01*
X136619897Y-76444695D02*
X137409529Y-77234327D01*
X139304979Y-77234327D02*
X139704978Y-76834328D01*
%TO.N,SCK*%
X136229592Y-78105000D02*
X136619897Y-78495305D01*
X135890000Y-78105000D02*
X136229592Y-78105000D01*
X131022798Y-83162202D02*
X131000000Y-83185000D01*
X131953000Y-83162202D02*
X131022798Y-83162202D01*
X135128000Y-86233000D02*
X132057202Y-83162202D01*
X132057202Y-83162202D02*
X131953000Y-83162202D01*
X135128000Y-87630000D02*
X135128000Y-86233000D01*
X131953000Y-83162202D02*
X131953000Y-82042000D01*
X131953000Y-82042000D02*
X133985000Y-80010000D01*
%TO.N,A0*%
X137922000Y-87630000D02*
X139065000Y-86487000D01*
X139065000Y-82838427D02*
X140014010Y-81889417D01*
X139065000Y-86487000D02*
X139065000Y-82838427D01*
%TO.N,A1*%
X140716000Y-87630000D02*
X140716000Y-82591408D01*
X140716000Y-82591408D02*
X140579695Y-82455103D01*
%TO.N,A2*%
X142494000Y-82591408D02*
X142630305Y-82455103D01*
X142494000Y-86614000D02*
X142494000Y-82591408D01*
X143510000Y-87630000D02*
X142494000Y-86614000D01*
%TO.N,A3*%
X144145000Y-85598000D02*
X144145000Y-82838427D01*
X144145000Y-82838427D02*
X143195990Y-81889417D01*
X146177000Y-87630000D02*
X144145000Y-85598000D01*
X146304000Y-87630000D02*
X146177000Y-87630000D01*
%TO.N,A7*%
X137414000Y-83358056D02*
X139448324Y-81323732D01*
X137414000Y-83820000D02*
X137414000Y-83358056D01*
%TO.N,A6*%
X137160000Y-80217944D02*
X137751268Y-79626676D01*
X137160000Y-81280000D02*
X137160000Y-80217944D01*
X134620000Y-83820000D02*
X137160000Y-81280000D01*
%TO.N,Net-(U2-Pad7)*%
X145126573Y-71120000D02*
X147390000Y-71120000D01*
X143195990Y-73050583D02*
X145126573Y-71120000D01*
%TO.N,Net-(U2-Pad8)*%
X149790000Y-69920000D02*
X149790000Y-71120000D01*
X149466000Y-69596000D02*
X149790000Y-69920000D01*
X145519202Y-69596000D02*
X149466000Y-69596000D01*
X142630305Y-72484897D02*
X145519202Y-69596000D01*
%TO.N,AREF*%
X127775000Y-71755000D02*
X127775000Y-70979966D01*
X127775000Y-70979966D02*
X128269966Y-70485000D01*
X141514988Y-78830012D02*
X141514988Y-78722166D01*
X140970000Y-79375000D02*
X141514988Y-78830012D01*
X139134314Y-79375000D02*
X140970000Y-79375000D01*
X138316953Y-80192361D02*
X139134314Y-79375000D01*
%TD*%
D19*
%TO.N,VCC*%
X150370001Y-86143647D02*
X150190476Y-86082129D01*
X149277605Y-86995000D01*
X149291748Y-87009143D01*
X149112143Y-87188748D01*
X149098000Y-87174605D01*
X149083858Y-87188748D01*
X148904253Y-87009143D01*
X148918395Y-86995000D01*
X148005524Y-86082129D01*
X147747277Y-86170623D01*
X147704114Y-86260023D01*
X147699570Y-86249052D01*
X147527227Y-85991123D01*
X147438628Y-85902524D01*
X148185129Y-85902524D01*
X149098000Y-86815395D01*
X150010871Y-85902524D01*
X149922377Y-85644277D01*
X149643024Y-85509403D01*
X149342725Y-85431619D01*
X149033023Y-85413916D01*
X148725816Y-85456973D01*
X148432914Y-85559135D01*
X148273623Y-85644277D01*
X148185129Y-85902524D01*
X147438628Y-85902524D01*
X147307877Y-85771773D01*
X147049948Y-85599430D01*
X146763352Y-85480718D01*
X146459104Y-85420200D01*
X146148896Y-85420200D01*
X145844648Y-85480718D01*
X145558052Y-85599430D01*
X145356143Y-85734342D01*
X144905000Y-85283199D01*
X144905000Y-84902104D01*
X145046123Y-85043227D01*
X145304052Y-85215570D01*
X145590648Y-85334282D01*
X145894896Y-85394800D01*
X146205104Y-85394800D01*
X146509352Y-85334282D01*
X146795948Y-85215570D01*
X147053877Y-85043227D01*
X147273227Y-84823877D01*
X147445570Y-84565948D01*
X147447000Y-84562496D01*
X147448430Y-84565948D01*
X147620773Y-84823877D01*
X147840123Y-85043227D01*
X148098052Y-85215570D01*
X148384648Y-85334282D01*
X148688896Y-85394800D01*
X148999104Y-85394800D01*
X149303352Y-85334282D01*
X149589948Y-85215570D01*
X149847877Y-85043227D01*
X150067227Y-84823877D01*
X150239570Y-84565948D01*
X150358282Y-84279352D01*
X150370000Y-84220440D01*
X150370001Y-86143647D01*
%TA.AperFunction,Conductor*%
D20*
G36*
X150370001Y-86143647D02*
G01*
X150190476Y-86082129D01*
X149277605Y-86995000D01*
X149291748Y-87009143D01*
X149112143Y-87188748D01*
X149098000Y-87174605D01*
X149083858Y-87188748D01*
X148904253Y-87009143D01*
X148918395Y-86995000D01*
X148005524Y-86082129D01*
X147747277Y-86170623D01*
X147704114Y-86260023D01*
X147699570Y-86249052D01*
X147527227Y-85991123D01*
X147438628Y-85902524D01*
X148185129Y-85902524D01*
X149098000Y-86815395D01*
X150010871Y-85902524D01*
X149922377Y-85644277D01*
X149643024Y-85509403D01*
X149342725Y-85431619D01*
X149033023Y-85413916D01*
X148725816Y-85456973D01*
X148432914Y-85559135D01*
X148273623Y-85644277D01*
X148185129Y-85902524D01*
X147438628Y-85902524D01*
X147307877Y-85771773D01*
X147049948Y-85599430D01*
X146763352Y-85480718D01*
X146459104Y-85420200D01*
X146148896Y-85420200D01*
X145844648Y-85480718D01*
X145558052Y-85599430D01*
X145356143Y-85734342D01*
X144905000Y-85283199D01*
X144905000Y-84902104D01*
X145046123Y-85043227D01*
X145304052Y-85215570D01*
X145590648Y-85334282D01*
X145894896Y-85394800D01*
X146205104Y-85394800D01*
X146509352Y-85334282D01*
X146795948Y-85215570D01*
X147053877Y-85043227D01*
X147273227Y-84823877D01*
X147445570Y-84565948D01*
X147447000Y-84562496D01*
X147448430Y-84565948D01*
X147620773Y-84823877D01*
X147840123Y-85043227D01*
X148098052Y-85215570D01*
X148384648Y-85334282D01*
X148688896Y-85394800D01*
X148999104Y-85394800D01*
X149303352Y-85334282D01*
X149589948Y-85215570D01*
X149847877Y-85043227D01*
X150067227Y-84823877D01*
X150239570Y-84565948D01*
X150358282Y-84279352D01*
X150370000Y-84220440D01*
X150370001Y-86143647D01*
G37*
%TD.AperFunction*%
D19*
X136196997Y-74833855D02*
X135974258Y-75056594D01*
X135894906Y-75153285D01*
X135894651Y-75153762D01*
X135894172Y-75154018D01*
X135797481Y-75233370D01*
X135408572Y-75622279D01*
X135329220Y-75718970D01*
X135270255Y-75829284D01*
X135233945Y-75948982D01*
X135221685Y-76073464D01*
X135233945Y-76197946D01*
X135270255Y-76317644D01*
X135329220Y-76427958D01*
X135408572Y-76524649D01*
X135953923Y-77070000D01*
X135788061Y-77070000D01*
X135588102Y-77109774D01*
X135399744Y-77187795D01*
X135230226Y-77301063D01*
X135086063Y-77445226D01*
X134972795Y-77614744D01*
X134894774Y-77803102D01*
X134855000Y-78003061D01*
X134855000Y-78206939D01*
X134894774Y-78406898D01*
X134972795Y-78595256D01*
X135086063Y-78764774D01*
X135225384Y-78904095D01*
X135233945Y-78991018D01*
X135270255Y-79110716D01*
X135329220Y-79221030D01*
X135408572Y-79317721D01*
X135797481Y-79706630D01*
X135894172Y-79785982D01*
X135895222Y-79786543D01*
X135968829Y-79873632D01*
X136099048Y-79873632D01*
X136124184Y-79881257D01*
X136248666Y-79893517D01*
X136364460Y-79882113D01*
X136353056Y-79997907D01*
X136365316Y-80122389D01*
X136372941Y-80147525D01*
X136372941Y-80277744D01*
X136400001Y-80300615D01*
X136400000Y-80965197D01*
X135062777Y-82302421D01*
X134775104Y-82245200D01*
X134464896Y-82245200D01*
X134160648Y-82305718D01*
X133874052Y-82424430D01*
X133616123Y-82596773D01*
X133396773Y-82816123D01*
X133224430Y-83074052D01*
X133171540Y-83201739D01*
X132713000Y-82743199D01*
X132713000Y-82356801D01*
X134024802Y-81045000D01*
X134086939Y-81045000D01*
X134286898Y-81005226D01*
X134475256Y-80927205D01*
X134644774Y-80813937D01*
X134788937Y-80669774D01*
X134902205Y-80500256D01*
X134980226Y-80311898D01*
X135020000Y-80111939D01*
X135020000Y-79908061D01*
X134980226Y-79708102D01*
X134902205Y-79519744D01*
X134788937Y-79350226D01*
X134644774Y-79206063D01*
X134475256Y-79092795D01*
X134286898Y-79014774D01*
X134086939Y-78975000D01*
X133883061Y-78975000D01*
X133683102Y-79014774D01*
X133601208Y-79048696D01*
X133682618Y-78949497D01*
X133762375Y-78800283D01*
X133811488Y-78638377D01*
X133828072Y-78470000D01*
X133828072Y-78020000D01*
X133811488Y-77851623D01*
X133762375Y-77689717D01*
X133684300Y-77543649D01*
X133720537Y-77499494D01*
X133779502Y-77389180D01*
X133815812Y-77269482D01*
X133828072Y-77145000D01*
X133825000Y-76980750D01*
X133666250Y-76822000D01*
X132842000Y-76822000D01*
X132842000Y-76842000D01*
X132588000Y-76842000D01*
X132588000Y-76822000D01*
X131763750Y-76822000D01*
X131605000Y-76980750D01*
X131601928Y-77145000D01*
X131614188Y-77269482D01*
X131650498Y-77389180D01*
X131709463Y-77499494D01*
X131745700Y-77543649D01*
X131667625Y-77689717D01*
X131618512Y-77851623D01*
X131601928Y-78020000D01*
X131601928Y-78470000D01*
X131618512Y-78638377D01*
X131667625Y-78800283D01*
X131747382Y-78949497D01*
X131854716Y-79080284D01*
X131955000Y-79162585D01*
X131955000Y-79695198D01*
X130495199Y-81155000D01*
X129023072Y-81155000D01*
X129023072Y-80620000D01*
X129010812Y-80495518D01*
X128974502Y-80375820D01*
X128915537Y-80265506D01*
X128836185Y-80168815D01*
X128739494Y-80089463D01*
X128629180Y-80030498D01*
X128509482Y-79994188D01*
X128385000Y-79981928D01*
X127321729Y-79981928D01*
X126985000Y-79645199D01*
X126985000Y-76245000D01*
X131601928Y-76245000D01*
X131605000Y-76409250D01*
X131763750Y-76568000D01*
X132588000Y-76568000D01*
X132588000Y-75768750D01*
X132842000Y-75768750D01*
X132842000Y-76568000D01*
X133666250Y-76568000D01*
X133825000Y-76409250D01*
X133828072Y-76245000D01*
X133815812Y-76120518D01*
X133779502Y-76000820D01*
X133720537Y-75890506D01*
X133641185Y-75793815D01*
X133544494Y-75714463D01*
X133434180Y-75655498D01*
X133314482Y-75619188D01*
X133190000Y-75606928D01*
X133000750Y-75610000D01*
X132842000Y-75768750D01*
X132588000Y-75768750D01*
X132429250Y-75610000D01*
X132240000Y-75606928D01*
X132115518Y-75619188D01*
X131995820Y-75655498D01*
X131885506Y-75714463D01*
X131788815Y-75793815D01*
X131709463Y-75890506D01*
X131650498Y-76000820D01*
X131614188Y-76120518D01*
X131601928Y-76245000D01*
X126985000Y-76245000D01*
X126985000Y-74958072D01*
X128385000Y-74958072D01*
X128509482Y-74945812D01*
X128629180Y-74909502D01*
X128739494Y-74850537D01*
X128836185Y-74771185D01*
X128915537Y-74674494D01*
X128974502Y-74564180D01*
X129010812Y-74444482D01*
X129023072Y-74320000D01*
X129023072Y-73981729D01*
X129554735Y-73450068D01*
X129611229Y-73534618D01*
X129755392Y-73678781D01*
X129924910Y-73792049D01*
X130113268Y-73870070D01*
X130313227Y-73909844D01*
X130517105Y-73909844D01*
X130717064Y-73870070D01*
X130905422Y-73792049D01*
X131074940Y-73678781D01*
X131219103Y-73534618D01*
X131332371Y-73365100D01*
X131410392Y-73176742D01*
X131450166Y-72976783D01*
X131450166Y-72863131D01*
X131524482Y-72855812D01*
X131644180Y-72819502D01*
X131754494Y-72760537D01*
X131851185Y-72681185D01*
X131930537Y-72584494D01*
X131989502Y-72474180D01*
X132025812Y-72354482D01*
X132038072Y-72230000D01*
X132035000Y-72040750D01*
X131876250Y-71882000D01*
X131127000Y-71882000D01*
X131127000Y-71902000D01*
X130873000Y-71902000D01*
X130873000Y-71882000D01*
X130853000Y-71882000D01*
X130853000Y-71628000D01*
X130873000Y-71628000D01*
X130873000Y-71608000D01*
X131127000Y-71608000D01*
X131127000Y-71628000D01*
X131876250Y-71628000D01*
X132035000Y-71469250D01*
X132035174Y-71458528D01*
X132821671Y-71458528D01*
X136196997Y-74833855D01*
%TA.AperFunction,Conductor*%
D20*
G36*
X136196997Y-74833855D02*
G01*
X135974258Y-75056594D01*
X135894906Y-75153285D01*
X135894651Y-75153762D01*
X135894172Y-75154018D01*
X135797481Y-75233370D01*
X135408572Y-75622279D01*
X135329220Y-75718970D01*
X135270255Y-75829284D01*
X135233945Y-75948982D01*
X135221685Y-76073464D01*
X135233945Y-76197946D01*
X135270255Y-76317644D01*
X135329220Y-76427958D01*
X135408572Y-76524649D01*
X135953923Y-77070000D01*
X135788061Y-77070000D01*
X135588102Y-77109774D01*
X135399744Y-77187795D01*
X135230226Y-77301063D01*
X135086063Y-77445226D01*
X134972795Y-77614744D01*
X134894774Y-77803102D01*
X134855000Y-78003061D01*
X134855000Y-78206939D01*
X134894774Y-78406898D01*
X134972795Y-78595256D01*
X135086063Y-78764774D01*
X135225384Y-78904095D01*
X135233945Y-78991018D01*
X135270255Y-79110716D01*
X135329220Y-79221030D01*
X135408572Y-79317721D01*
X135797481Y-79706630D01*
X135894172Y-79785982D01*
X135895222Y-79786543D01*
X135968829Y-79873632D01*
X136099048Y-79873632D01*
X136124184Y-79881257D01*
X136248666Y-79893517D01*
X136364460Y-79882113D01*
X136353056Y-79997907D01*
X136365316Y-80122389D01*
X136372941Y-80147525D01*
X136372941Y-80277744D01*
X136400001Y-80300615D01*
X136400000Y-80965197D01*
X135062777Y-82302421D01*
X134775104Y-82245200D01*
X134464896Y-82245200D01*
X134160648Y-82305718D01*
X133874052Y-82424430D01*
X133616123Y-82596773D01*
X133396773Y-82816123D01*
X133224430Y-83074052D01*
X133171540Y-83201739D01*
X132713000Y-82743199D01*
X132713000Y-82356801D01*
X134024802Y-81045000D01*
X134086939Y-81045000D01*
X134286898Y-81005226D01*
X134475256Y-80927205D01*
X134644774Y-80813937D01*
X134788937Y-80669774D01*
X134902205Y-80500256D01*
X134980226Y-80311898D01*
X135020000Y-80111939D01*
X135020000Y-79908061D01*
X134980226Y-79708102D01*
X134902205Y-79519744D01*
X134788937Y-79350226D01*
X134644774Y-79206063D01*
X134475256Y-79092795D01*
X134286898Y-79014774D01*
X134086939Y-78975000D01*
X133883061Y-78975000D01*
X133683102Y-79014774D01*
X133601208Y-79048696D01*
X133682618Y-78949497D01*
X133762375Y-78800283D01*
X133811488Y-78638377D01*
X133828072Y-78470000D01*
X133828072Y-78020000D01*
X133811488Y-77851623D01*
X133762375Y-77689717D01*
X133684300Y-77543649D01*
X133720537Y-77499494D01*
X133779502Y-77389180D01*
X133815812Y-77269482D01*
X133828072Y-77145000D01*
X133825000Y-76980750D01*
X133666250Y-76822000D01*
X132842000Y-76822000D01*
X132842000Y-76842000D01*
X132588000Y-76842000D01*
X132588000Y-76822000D01*
X131763750Y-76822000D01*
X131605000Y-76980750D01*
X131601928Y-77145000D01*
X131614188Y-77269482D01*
X131650498Y-77389180D01*
X131709463Y-77499494D01*
X131745700Y-77543649D01*
X131667625Y-77689717D01*
X131618512Y-77851623D01*
X131601928Y-78020000D01*
X131601928Y-78470000D01*
X131618512Y-78638377D01*
X131667625Y-78800283D01*
X131747382Y-78949497D01*
X131854716Y-79080284D01*
X131955000Y-79162585D01*
X131955000Y-79695198D01*
X130495199Y-81155000D01*
X129023072Y-81155000D01*
X129023072Y-80620000D01*
X129010812Y-80495518D01*
X128974502Y-80375820D01*
X128915537Y-80265506D01*
X128836185Y-80168815D01*
X128739494Y-80089463D01*
X128629180Y-80030498D01*
X128509482Y-79994188D01*
X128385000Y-79981928D01*
X127321729Y-79981928D01*
X126985000Y-79645199D01*
X126985000Y-76245000D01*
X131601928Y-76245000D01*
X131605000Y-76409250D01*
X131763750Y-76568000D01*
X132588000Y-76568000D01*
X132588000Y-75768750D01*
X132842000Y-75768750D01*
X132842000Y-76568000D01*
X133666250Y-76568000D01*
X133825000Y-76409250D01*
X133828072Y-76245000D01*
X133815812Y-76120518D01*
X133779502Y-76000820D01*
X133720537Y-75890506D01*
X133641185Y-75793815D01*
X133544494Y-75714463D01*
X133434180Y-75655498D01*
X133314482Y-75619188D01*
X133190000Y-75606928D01*
X133000750Y-75610000D01*
X132842000Y-75768750D01*
X132588000Y-75768750D01*
X132429250Y-75610000D01*
X132240000Y-75606928D01*
X132115518Y-75619188D01*
X131995820Y-75655498D01*
X131885506Y-75714463D01*
X131788815Y-75793815D01*
X131709463Y-75890506D01*
X131650498Y-76000820D01*
X131614188Y-76120518D01*
X131601928Y-76245000D01*
X126985000Y-76245000D01*
X126985000Y-74958072D01*
X128385000Y-74958072D01*
X128509482Y-74945812D01*
X128629180Y-74909502D01*
X128739494Y-74850537D01*
X128836185Y-74771185D01*
X128915537Y-74674494D01*
X128974502Y-74564180D01*
X129010812Y-74444482D01*
X129023072Y-74320000D01*
X129023072Y-73981729D01*
X129554735Y-73450068D01*
X129611229Y-73534618D01*
X129755392Y-73678781D01*
X129924910Y-73792049D01*
X130113268Y-73870070D01*
X130313227Y-73909844D01*
X130517105Y-73909844D01*
X130717064Y-73870070D01*
X130905422Y-73792049D01*
X131074940Y-73678781D01*
X131219103Y-73534618D01*
X131332371Y-73365100D01*
X131410392Y-73176742D01*
X131450166Y-72976783D01*
X131450166Y-72863131D01*
X131524482Y-72855812D01*
X131644180Y-72819502D01*
X131754494Y-72760537D01*
X131851185Y-72681185D01*
X131930537Y-72584494D01*
X131989502Y-72474180D01*
X132025812Y-72354482D01*
X132038072Y-72230000D01*
X132035000Y-72040750D01*
X131876250Y-71882000D01*
X131127000Y-71882000D01*
X131127000Y-71902000D01*
X130873000Y-71902000D01*
X130873000Y-71882000D01*
X130853000Y-71882000D01*
X130853000Y-71628000D01*
X130873000Y-71628000D01*
X130873000Y-71608000D01*
X131127000Y-71608000D01*
X131127000Y-71628000D01*
X131876250Y-71628000D01*
X132035000Y-71469250D01*
X132035174Y-71458528D01*
X132821671Y-71458528D01*
X136196997Y-74833855D01*
G37*
%TD.AperFunction*%
D19*
X149427211Y-74302013D02*
X149398512Y-74396623D01*
X149381928Y-74565000D01*
X149381928Y-75015000D01*
X149398512Y-75183377D01*
X149447625Y-75345283D01*
X149525700Y-75491351D01*
X149489463Y-75535506D01*
X149430498Y-75645820D01*
X149394188Y-75765518D01*
X149381928Y-75890000D01*
X149385000Y-76054250D01*
X149543750Y-76213000D01*
X150368000Y-76213000D01*
X150368000Y-76193000D01*
X150622000Y-76193000D01*
X150622000Y-76213000D01*
X150642000Y-76213000D01*
X150642000Y-76467000D01*
X150622000Y-76467000D01*
X150622000Y-76487000D01*
X150368000Y-76487000D01*
X150368000Y-76467000D01*
X149543750Y-76467000D01*
X149385000Y-76625750D01*
X149381928Y-76790000D01*
X149394188Y-76914482D01*
X149430498Y-77034180D01*
X149489463Y-77144494D01*
X149568815Y-77241185D01*
X149626323Y-77288381D01*
X149526329Y-77410225D01*
X149447150Y-77558358D01*
X149398392Y-77719092D01*
X149381928Y-77886250D01*
X149381928Y-78323750D01*
X149398392Y-78490908D01*
X149447150Y-78651642D01*
X149526329Y-78799775D01*
X149602426Y-78892500D01*
X149526329Y-78985225D01*
X149447150Y-79133358D01*
X149398392Y-79294092D01*
X149381928Y-79461250D01*
X149381928Y-79898750D01*
X149398392Y-80065908D01*
X149447150Y-80226642D01*
X149526329Y-80374775D01*
X149632885Y-80504615D01*
X149762725Y-80611171D01*
X149910858Y-80690350D01*
X150071592Y-80739108D01*
X150238750Y-80755572D01*
X150751250Y-80755572D01*
X150918408Y-80739108D01*
X151079142Y-80690350D01*
X151227275Y-80611171D01*
X151357115Y-80504615D01*
X151463671Y-80374775D01*
X151542850Y-80226642D01*
X151591608Y-80065908D01*
X151608072Y-79898750D01*
X151608072Y-79461250D01*
X151596907Y-79347894D01*
X151771382Y-79173420D01*
X151776728Y-79227702D01*
X151813038Y-79347400D01*
X151872003Y-79457714D01*
X151951355Y-79554405D01*
X152048046Y-79633757D01*
X152158360Y-79692722D01*
X152278058Y-79729032D01*
X152318183Y-79732984D01*
X152524417Y-79939218D01*
X152548220Y-79968222D01*
X152663945Y-80063195D01*
X152772095Y-80121003D01*
X152795974Y-80133767D01*
X152939235Y-80177224D01*
X153088221Y-80191898D01*
X153125554Y-80188221D01*
X154214457Y-80188221D01*
X154251779Y-80191897D01*
X154289101Y-80188221D01*
X154289112Y-80188221D01*
X154400765Y-80177224D01*
X154544026Y-80133767D01*
X154544311Y-80133614D01*
X154579774Y-80311898D01*
X154657795Y-80500256D01*
X154771063Y-80669774D01*
X154915226Y-80813937D01*
X155084744Y-80927205D01*
X155273102Y-81005226D01*
X155473061Y-81045000D01*
X155676939Y-81045000D01*
X155876898Y-81005226D01*
X156065256Y-80927205D01*
X156234774Y-80813937D01*
X156378937Y-80669774D01*
X156492205Y-80500256D01*
X156570226Y-80311898D01*
X156610000Y-80111939D01*
X156610000Y-79908061D01*
X156570226Y-79708102D01*
X156492205Y-79519744D01*
X156378937Y-79350226D01*
X156361783Y-79333072D01*
X156485000Y-79333072D01*
X156648500Y-79316969D01*
X156805716Y-79269278D01*
X156950608Y-79191831D01*
X157077606Y-79087606D01*
X157095372Y-79065958D01*
X157178102Y-79100226D01*
X157378061Y-79140000D01*
X157581939Y-79140000D01*
X157659086Y-79124655D01*
X157659086Y-79186765D01*
X157655410Y-79224088D01*
X157659086Y-79261410D01*
X157659086Y-79261420D01*
X157659087Y-79261430D01*
X157659086Y-80026112D01*
X156535176Y-81150023D01*
X149044038Y-81150023D01*
X147506582Y-79612567D01*
X147801428Y-79317721D01*
X147880780Y-79221030D01*
X147939745Y-79110716D01*
X147976055Y-78991018D01*
X147988315Y-78866536D01*
X147976055Y-78742054D01*
X147939745Y-78622356D01*
X147880780Y-78512042D01*
X147801428Y-78415351D01*
X147773143Y-78387066D01*
X147998764Y-78161446D01*
X148008038Y-78159601D01*
X148196396Y-78081580D01*
X148365914Y-77968312D01*
X148510077Y-77824149D01*
X148623345Y-77654631D01*
X148701366Y-77466273D01*
X148741140Y-77266314D01*
X148741140Y-77062436D01*
X148701366Y-76862477D01*
X148623345Y-76674119D01*
X148510077Y-76504601D01*
X148365914Y-76360438D01*
X148196396Y-76247170D01*
X148008038Y-76169149D01*
X147979451Y-76163463D01*
X147988315Y-76073464D01*
X147976055Y-75948982D01*
X147939745Y-75829284D01*
X147912726Y-75778737D01*
X147979774Y-75733937D01*
X148123937Y-75589774D01*
X148237205Y-75420256D01*
X148315226Y-75231898D01*
X148355000Y-75031939D01*
X148355000Y-74828061D01*
X148315226Y-74628102D01*
X148237205Y-74439744D01*
X148123937Y-74270226D01*
X147979774Y-74126063D01*
X147810256Y-74012795D01*
X147621898Y-73934774D01*
X147421939Y-73895000D01*
X147218061Y-73895000D01*
X147018102Y-73934774D01*
X146829744Y-74012795D01*
X146798218Y-74033860D01*
X146198120Y-74033860D01*
X146184457Y-74022647D01*
X146183409Y-74022087D01*
X146109801Y-73934997D01*
X145979581Y-73934997D01*
X145954445Y-73927372D01*
X145829963Y-73915112D01*
X145714169Y-73926516D01*
X145720349Y-73863767D01*
X145926004Y-73658112D01*
X145955001Y-73634315D01*
X146049974Y-73518590D01*
X146120546Y-73386561D01*
X146164003Y-73243300D01*
X146173192Y-73150000D01*
X148275199Y-73150000D01*
X149427211Y-74302013D01*
%TA.AperFunction,Conductor*%
D20*
G36*
X149427211Y-74302013D02*
G01*
X149398512Y-74396623D01*
X149381928Y-74565000D01*
X149381928Y-75015000D01*
X149398512Y-75183377D01*
X149447625Y-75345283D01*
X149525700Y-75491351D01*
X149489463Y-75535506D01*
X149430498Y-75645820D01*
X149394188Y-75765518D01*
X149381928Y-75890000D01*
X149385000Y-76054250D01*
X149543750Y-76213000D01*
X150368000Y-76213000D01*
X150368000Y-76193000D01*
X150622000Y-76193000D01*
X150622000Y-76213000D01*
X150642000Y-76213000D01*
X150642000Y-76467000D01*
X150622000Y-76467000D01*
X150622000Y-76487000D01*
X150368000Y-76487000D01*
X150368000Y-76467000D01*
X149543750Y-76467000D01*
X149385000Y-76625750D01*
X149381928Y-76790000D01*
X149394188Y-76914482D01*
X149430498Y-77034180D01*
X149489463Y-77144494D01*
X149568815Y-77241185D01*
X149626323Y-77288381D01*
X149526329Y-77410225D01*
X149447150Y-77558358D01*
X149398392Y-77719092D01*
X149381928Y-77886250D01*
X149381928Y-78323750D01*
X149398392Y-78490908D01*
X149447150Y-78651642D01*
X149526329Y-78799775D01*
X149602426Y-78892500D01*
X149526329Y-78985225D01*
X149447150Y-79133358D01*
X149398392Y-79294092D01*
X149381928Y-79461250D01*
X149381928Y-79898750D01*
X149398392Y-80065908D01*
X149447150Y-80226642D01*
X149526329Y-80374775D01*
X149632885Y-80504615D01*
X149762725Y-80611171D01*
X149910858Y-80690350D01*
X150071592Y-80739108D01*
X150238750Y-80755572D01*
X150751250Y-80755572D01*
X150918408Y-80739108D01*
X151079142Y-80690350D01*
X151227275Y-80611171D01*
X151357115Y-80504615D01*
X151463671Y-80374775D01*
X151542850Y-80226642D01*
X151591608Y-80065908D01*
X151608072Y-79898750D01*
X151608072Y-79461250D01*
X151596907Y-79347894D01*
X151771382Y-79173420D01*
X151776728Y-79227702D01*
X151813038Y-79347400D01*
X151872003Y-79457714D01*
X151951355Y-79554405D01*
X152048046Y-79633757D01*
X152158360Y-79692722D01*
X152278058Y-79729032D01*
X152318183Y-79732984D01*
X152524417Y-79939218D01*
X152548220Y-79968222D01*
X152663945Y-80063195D01*
X152772095Y-80121003D01*
X152795974Y-80133767D01*
X152939235Y-80177224D01*
X153088221Y-80191898D01*
X153125554Y-80188221D01*
X154214457Y-80188221D01*
X154251779Y-80191897D01*
X154289101Y-80188221D01*
X154289112Y-80188221D01*
X154400765Y-80177224D01*
X154544026Y-80133767D01*
X154544311Y-80133614D01*
X154579774Y-80311898D01*
X154657795Y-80500256D01*
X154771063Y-80669774D01*
X154915226Y-80813937D01*
X155084744Y-80927205D01*
X155273102Y-81005226D01*
X155473061Y-81045000D01*
X155676939Y-81045000D01*
X155876898Y-81005226D01*
X156065256Y-80927205D01*
X156234774Y-80813937D01*
X156378937Y-80669774D01*
X156492205Y-80500256D01*
X156570226Y-80311898D01*
X156610000Y-80111939D01*
X156610000Y-79908061D01*
X156570226Y-79708102D01*
X156492205Y-79519744D01*
X156378937Y-79350226D01*
X156361783Y-79333072D01*
X156485000Y-79333072D01*
X156648500Y-79316969D01*
X156805716Y-79269278D01*
X156950608Y-79191831D01*
X157077606Y-79087606D01*
X157095372Y-79065958D01*
X157178102Y-79100226D01*
X157378061Y-79140000D01*
X157581939Y-79140000D01*
X157659086Y-79124655D01*
X157659086Y-79186765D01*
X157655410Y-79224088D01*
X157659086Y-79261410D01*
X157659086Y-79261420D01*
X157659087Y-79261430D01*
X157659086Y-80026112D01*
X156535176Y-81150023D01*
X149044038Y-81150023D01*
X147506582Y-79612567D01*
X147801428Y-79317721D01*
X147880780Y-79221030D01*
X147939745Y-79110716D01*
X147976055Y-78991018D01*
X147988315Y-78866536D01*
X147976055Y-78742054D01*
X147939745Y-78622356D01*
X147880780Y-78512042D01*
X147801428Y-78415351D01*
X147773143Y-78387066D01*
X147998764Y-78161446D01*
X148008038Y-78159601D01*
X148196396Y-78081580D01*
X148365914Y-77968312D01*
X148510077Y-77824149D01*
X148623345Y-77654631D01*
X148701366Y-77466273D01*
X148741140Y-77266314D01*
X148741140Y-77062436D01*
X148701366Y-76862477D01*
X148623345Y-76674119D01*
X148510077Y-76504601D01*
X148365914Y-76360438D01*
X148196396Y-76247170D01*
X148008038Y-76169149D01*
X147979451Y-76163463D01*
X147988315Y-76073464D01*
X147976055Y-75948982D01*
X147939745Y-75829284D01*
X147912726Y-75778737D01*
X147979774Y-75733937D01*
X148123937Y-75589774D01*
X148237205Y-75420256D01*
X148315226Y-75231898D01*
X148355000Y-75031939D01*
X148355000Y-74828061D01*
X148315226Y-74628102D01*
X148237205Y-74439744D01*
X148123937Y-74270226D01*
X147979774Y-74126063D01*
X147810256Y-74012795D01*
X147621898Y-73934774D01*
X147421939Y-73895000D01*
X147218061Y-73895000D01*
X147018102Y-73934774D01*
X146829744Y-74012795D01*
X146798218Y-74033860D01*
X146198120Y-74033860D01*
X146184457Y-74022647D01*
X146183409Y-74022087D01*
X146109801Y-73934997D01*
X145979581Y-73934997D01*
X145954445Y-73927372D01*
X145829963Y-73915112D01*
X145714169Y-73926516D01*
X145720349Y-73863767D01*
X145926004Y-73658112D01*
X145955001Y-73634315D01*
X146049974Y-73518590D01*
X146120546Y-73386561D01*
X146164003Y-73243300D01*
X146173192Y-73150000D01*
X148275199Y-73150000D01*
X149427211Y-74302013D01*
G37*
%TD.AperFunction*%
D19*
X141807889Y-73696222D02*
X141904580Y-73775574D01*
X141905057Y-73775829D01*
X141905313Y-73776308D01*
X141984665Y-73872999D01*
X142373574Y-74261908D01*
X142470265Y-74341260D01*
X142471315Y-74341821D01*
X142544922Y-74428910D01*
X142675141Y-74428910D01*
X142700277Y-74436535D01*
X142824759Y-74448795D01*
X142940553Y-74437391D01*
X142929149Y-74553184D01*
X142941409Y-74677666D01*
X142949034Y-74702802D01*
X142949034Y-74833022D01*
X143036124Y-74906630D01*
X143036684Y-74907678D01*
X143116036Y-75004369D01*
X143504945Y-75393278D01*
X143561876Y-75440000D01*
X142943711Y-75440000D01*
X142899774Y-75396063D01*
X142730256Y-75282795D01*
X142541898Y-75204774D01*
X142341939Y-75165000D01*
X142138061Y-75165000D01*
X141938102Y-75204774D01*
X141749744Y-75282795D01*
X141580226Y-75396063D01*
X141436063Y-75540226D01*
X141322795Y-75709744D01*
X141244774Y-75898102D01*
X141205000Y-76098061D01*
X141205000Y-76301939D01*
X141244774Y-76501898D01*
X141322795Y-76690256D01*
X141436063Y-76859774D01*
X141580226Y-77003937D01*
X141749744Y-77117205D01*
X141938102Y-77195226D01*
X142138061Y-77235000D01*
X142341939Y-77235000D01*
X142509744Y-77201622D01*
X142514774Y-77226908D01*
X142592795Y-77415266D01*
X142706063Y-77584784D01*
X142850226Y-77728947D01*
X143019744Y-77842215D01*
X143113331Y-77880980D01*
X143030249Y-77936494D01*
X142886086Y-78080657D01*
X142772818Y-78250175D01*
X142694797Y-78438533D01*
X142655023Y-78638492D01*
X142655023Y-78842370D01*
X142656126Y-78847914D01*
X142639990Y-78846325D01*
X142602668Y-78850001D01*
X142602658Y-78850001D01*
X142543682Y-78855810D01*
X142549988Y-78824105D01*
X142549988Y-78620227D01*
X142510214Y-78420268D01*
X142432193Y-78231910D01*
X142318925Y-78062392D01*
X142174762Y-77918229D01*
X142005244Y-77804961D01*
X141816886Y-77726940D01*
X141616927Y-77687166D01*
X141413049Y-77687166D01*
X141213090Y-77726940D01*
X141024732Y-77804961D01*
X140855214Y-77918229D01*
X140711051Y-78062392D01*
X140597783Y-78231910D01*
X140519762Y-78420268D01*
X140481028Y-78615000D01*
X139171636Y-78615000D01*
X139134313Y-78611324D01*
X139096991Y-78615000D01*
X139096981Y-78615000D01*
X138985328Y-78625997D01*
X138856081Y-78665203D01*
X138842067Y-78669454D01*
X138832761Y-78674428D01*
X138573684Y-78415351D01*
X138476993Y-78335999D01*
X138475946Y-78335439D01*
X138402337Y-78248348D01*
X138272114Y-78248348D01*
X138246981Y-78240724D01*
X138122499Y-78228464D01*
X138006705Y-78239868D01*
X138018109Y-78124074D01*
X138005849Y-77999592D01*
X138004252Y-77994327D01*
X139267657Y-77994327D01*
X139304979Y-77998003D01*
X139342301Y-77994327D01*
X139342312Y-77994327D01*
X139453965Y-77983330D01*
X139597226Y-77939873D01*
X139729204Y-77869328D01*
X139806917Y-77869328D01*
X140006876Y-77829554D01*
X140195234Y-77751533D01*
X140364752Y-77638265D01*
X140508915Y-77494102D01*
X140622183Y-77324584D01*
X140700204Y-77136226D01*
X140739978Y-76936267D01*
X140739978Y-76732389D01*
X140700204Y-76532430D01*
X140622183Y-76344072D01*
X140508915Y-76174554D01*
X140364752Y-76030391D01*
X140195234Y-75917123D01*
X140006876Y-75839102D01*
X139991483Y-75836040D01*
X139986668Y-75811833D01*
X139908647Y-75623475D01*
X139795379Y-75453957D01*
X139719878Y-75378456D01*
X140093964Y-75004369D01*
X140173316Y-74907678D01*
X140173571Y-74907200D01*
X140174049Y-74906945D01*
X140270740Y-74827593D01*
X140659649Y-74438684D01*
X140739001Y-74341993D01*
X140739256Y-74341516D01*
X140739735Y-74341260D01*
X140836426Y-74261908D01*
X141225335Y-73872999D01*
X141304687Y-73776308D01*
X141304943Y-73775829D01*
X141305420Y-73775574D01*
X141402111Y-73696222D01*
X141605000Y-73493333D01*
X141807889Y-73696222D01*
%TA.AperFunction,Conductor*%
D20*
G36*
X141807889Y-73696222D02*
G01*
X141904580Y-73775574D01*
X141905057Y-73775829D01*
X141905313Y-73776308D01*
X141984665Y-73872999D01*
X142373574Y-74261908D01*
X142470265Y-74341260D01*
X142471315Y-74341821D01*
X142544922Y-74428910D01*
X142675141Y-74428910D01*
X142700277Y-74436535D01*
X142824759Y-74448795D01*
X142940553Y-74437391D01*
X142929149Y-74553184D01*
X142941409Y-74677666D01*
X142949034Y-74702802D01*
X142949034Y-74833022D01*
X143036124Y-74906630D01*
X143036684Y-74907678D01*
X143116036Y-75004369D01*
X143504945Y-75393278D01*
X143561876Y-75440000D01*
X142943711Y-75440000D01*
X142899774Y-75396063D01*
X142730256Y-75282795D01*
X142541898Y-75204774D01*
X142341939Y-75165000D01*
X142138061Y-75165000D01*
X141938102Y-75204774D01*
X141749744Y-75282795D01*
X141580226Y-75396063D01*
X141436063Y-75540226D01*
X141322795Y-75709744D01*
X141244774Y-75898102D01*
X141205000Y-76098061D01*
X141205000Y-76301939D01*
X141244774Y-76501898D01*
X141322795Y-76690256D01*
X141436063Y-76859774D01*
X141580226Y-77003937D01*
X141749744Y-77117205D01*
X141938102Y-77195226D01*
X142138061Y-77235000D01*
X142341939Y-77235000D01*
X142509744Y-77201622D01*
X142514774Y-77226908D01*
X142592795Y-77415266D01*
X142706063Y-77584784D01*
X142850226Y-77728947D01*
X143019744Y-77842215D01*
X143113331Y-77880980D01*
X143030249Y-77936494D01*
X142886086Y-78080657D01*
X142772818Y-78250175D01*
X142694797Y-78438533D01*
X142655023Y-78638492D01*
X142655023Y-78842370D01*
X142656126Y-78847914D01*
X142639990Y-78846325D01*
X142602668Y-78850001D01*
X142602658Y-78850001D01*
X142543682Y-78855810D01*
X142549988Y-78824105D01*
X142549988Y-78620227D01*
X142510214Y-78420268D01*
X142432193Y-78231910D01*
X142318925Y-78062392D01*
X142174762Y-77918229D01*
X142005244Y-77804961D01*
X141816886Y-77726940D01*
X141616927Y-77687166D01*
X141413049Y-77687166D01*
X141213090Y-77726940D01*
X141024732Y-77804961D01*
X140855214Y-77918229D01*
X140711051Y-78062392D01*
X140597783Y-78231910D01*
X140519762Y-78420268D01*
X140481028Y-78615000D01*
X139171636Y-78615000D01*
X139134313Y-78611324D01*
X139096991Y-78615000D01*
X139096981Y-78615000D01*
X138985328Y-78625997D01*
X138856081Y-78665203D01*
X138842067Y-78669454D01*
X138832761Y-78674428D01*
X138573684Y-78415351D01*
X138476993Y-78335999D01*
X138475946Y-78335439D01*
X138402337Y-78248348D01*
X138272114Y-78248348D01*
X138246981Y-78240724D01*
X138122499Y-78228464D01*
X138006705Y-78239868D01*
X138018109Y-78124074D01*
X138005849Y-77999592D01*
X138004252Y-77994327D01*
X139267657Y-77994327D01*
X139304979Y-77998003D01*
X139342301Y-77994327D01*
X139342312Y-77994327D01*
X139453965Y-77983330D01*
X139597226Y-77939873D01*
X139729204Y-77869328D01*
X139806917Y-77869328D01*
X140006876Y-77829554D01*
X140195234Y-77751533D01*
X140364752Y-77638265D01*
X140508915Y-77494102D01*
X140622183Y-77324584D01*
X140700204Y-77136226D01*
X140739978Y-76936267D01*
X140739978Y-76732389D01*
X140700204Y-76532430D01*
X140622183Y-76344072D01*
X140508915Y-76174554D01*
X140364752Y-76030391D01*
X140195234Y-75917123D01*
X140006876Y-75839102D01*
X139991483Y-75836040D01*
X139986668Y-75811833D01*
X139908647Y-75623475D01*
X139795379Y-75453957D01*
X139719878Y-75378456D01*
X140093964Y-75004369D01*
X140173316Y-74907678D01*
X140173571Y-74907200D01*
X140174049Y-74906945D01*
X140270740Y-74827593D01*
X140659649Y-74438684D01*
X140739001Y-74341993D01*
X140739256Y-74341516D01*
X140739735Y-74341260D01*
X140836426Y-74261908D01*
X141225335Y-73872999D01*
X141304687Y-73776308D01*
X141304943Y-73775829D01*
X141305420Y-73775574D01*
X141402111Y-73696222D01*
X141605000Y-73493333D01*
X141807889Y-73696222D01*
G37*
%TD.AperFunction*%
D19*
X158796773Y-74282877D02*
X159016123Y-74502227D01*
X159274052Y-74674570D01*
X159280151Y-74677096D01*
X159195623Y-74722277D01*
X159107129Y-74980524D01*
X160020000Y-75893395D01*
X160034143Y-75879253D01*
X160213748Y-76058858D01*
X160199605Y-76073000D01*
X160213748Y-76087143D01*
X160034143Y-76266748D01*
X160020000Y-76252605D01*
X160005858Y-76266748D01*
X159826253Y-76087143D01*
X159840395Y-76073000D01*
X159156809Y-75389414D01*
X159124632Y-75283339D01*
X159118974Y-75272753D01*
X159054060Y-75151309D01*
X158982885Y-75064583D01*
X158959087Y-75035585D01*
X158930088Y-75011787D01*
X158494000Y-74575699D01*
X158494000Y-74355801D01*
X158704709Y-74145093D01*
X158796773Y-74282877D01*
%TA.AperFunction,Conductor*%
D20*
G36*
X158796773Y-74282877D02*
G01*
X159016123Y-74502227D01*
X159274052Y-74674570D01*
X159280151Y-74677096D01*
X159195623Y-74722277D01*
X159107129Y-74980524D01*
X160020000Y-75893395D01*
X160034143Y-75879253D01*
X160213748Y-76058858D01*
X160199605Y-76073000D01*
X160213748Y-76087143D01*
X160034143Y-76266748D01*
X160020000Y-76252605D01*
X160005858Y-76266748D01*
X159826253Y-76087143D01*
X159840395Y-76073000D01*
X159156809Y-75389414D01*
X159124632Y-75283339D01*
X159118974Y-75272753D01*
X159054060Y-75151309D01*
X158982885Y-75064583D01*
X158959087Y-75035585D01*
X158930088Y-75011787D01*
X158494000Y-74575699D01*
X158494000Y-74355801D01*
X158704709Y-74145093D01*
X158796773Y-74282877D01*
G37*
%TD.AperFunction*%
D19*
X150369430Y-68690948D02*
X150541773Y-68948877D01*
X150761123Y-69168227D01*
X151019052Y-69340570D01*
X151305648Y-69459282D01*
X151609896Y-69519800D01*
X151920104Y-69519800D01*
X152224352Y-69459282D01*
X152270342Y-69440233D01*
X152264188Y-69460518D01*
X152251928Y-69585000D01*
X152255000Y-70199250D01*
X152413750Y-70358000D01*
X153338000Y-70358000D01*
X153338000Y-70338000D01*
X153592000Y-70338000D01*
X153592000Y-70358000D01*
X154516250Y-70358000D01*
X154675000Y-70199250D01*
X154678072Y-69585000D01*
X154671651Y-69519800D01*
X154714104Y-69519800D01*
X155018352Y-69459282D01*
X155304948Y-69340570D01*
X155410127Y-69270291D01*
X155351595Y-69341613D01*
X155269528Y-69495149D01*
X155218992Y-69661745D01*
X155201928Y-69834999D01*
X155201928Y-71135001D01*
X155218992Y-71308255D01*
X155269528Y-71474851D01*
X155351595Y-71628387D01*
X155462038Y-71762962D01*
X155596613Y-71873405D01*
X155750149Y-71955472D01*
X155916745Y-72006008D01*
X156089999Y-72023072D01*
X156740001Y-72023072D01*
X156913255Y-72006008D01*
X157079851Y-71955472D01*
X157233387Y-71873405D01*
X157367962Y-71762962D01*
X157478405Y-71628387D01*
X157532799Y-71526623D01*
X157532799Y-73167399D01*
X157222998Y-73477201D01*
X157194000Y-73500999D01*
X157170202Y-73529997D01*
X157170201Y-73529998D01*
X157099026Y-73616724D01*
X157028454Y-73748754D01*
X157000469Y-73841013D01*
X156984998Y-73892014D01*
X156983978Y-73902367D01*
X156946939Y-73895000D01*
X156743061Y-73895000D01*
X156543102Y-73934774D01*
X156354744Y-74012795D01*
X156185226Y-74126063D01*
X156041063Y-74270226D01*
X155927795Y-74439744D01*
X155849774Y-74628102D01*
X155810000Y-74828061D01*
X155810000Y-75031939D01*
X155849774Y-75231898D01*
X155927795Y-75420256D01*
X156041063Y-75589774D01*
X156058217Y-75606928D01*
X155935000Y-75606928D01*
X155771500Y-75623031D01*
X155614284Y-75670722D01*
X155559537Y-75699985D01*
X155526962Y-75592600D01*
X155467997Y-75482286D01*
X155388645Y-75385595D01*
X155379960Y-75378467D01*
X155379960Y-74901284D01*
X155383636Y-74863961D01*
X155379960Y-74826638D01*
X155379960Y-74709448D01*
X155409502Y-74654180D01*
X155445812Y-74534482D01*
X155458072Y-74410000D01*
X155458072Y-72910000D01*
X155445812Y-72785518D01*
X155409502Y-72665820D01*
X155350537Y-72555506D01*
X155271185Y-72458815D01*
X155174494Y-72379463D01*
X155064180Y-72320498D01*
X154944482Y-72284188D01*
X154820000Y-72271928D01*
X153820000Y-72271928D01*
X153695518Y-72284188D01*
X153670000Y-72291929D01*
X153644482Y-72284188D01*
X153520000Y-72271928D01*
X153305750Y-72275000D01*
X153147000Y-72433750D01*
X153147000Y-72789407D01*
X153125219Y-72800988D01*
X153072297Y-72828655D01*
X153070563Y-72830049D01*
X153068596Y-72831095D01*
X153022263Y-72868883D01*
X152975714Y-72906310D01*
X152974283Y-72908015D01*
X152972557Y-72909423D01*
X152934461Y-72955473D01*
X152896053Y-73001246D01*
X152894980Y-73003198D01*
X152893561Y-73004913D01*
X152893000Y-73005951D01*
X152893000Y-72433750D01*
X152734250Y-72275000D01*
X152520000Y-72271928D01*
X152395518Y-72284188D01*
X152275820Y-72320498D01*
X152165506Y-72379463D01*
X152068815Y-72458815D01*
X151989463Y-72555506D01*
X151930498Y-72665820D01*
X151894188Y-72785518D01*
X151881928Y-72910000D01*
X151885000Y-73374250D01*
X152043750Y-73533000D01*
X152785000Y-73533000D01*
X152785000Y-73787000D01*
X152043750Y-73787000D01*
X151885000Y-73945750D01*
X151881928Y-74410000D01*
X151894188Y-74534482D01*
X151930498Y-74654180D01*
X151959044Y-74707584D01*
X151937400Y-74733957D01*
X151602797Y-75068561D01*
X151608072Y-75015000D01*
X151608072Y-74565000D01*
X151591488Y-74396623D01*
X151542375Y-74234717D01*
X151462618Y-74085503D01*
X151355284Y-73954716D01*
X151224497Y-73847382D01*
X151075283Y-73767625D01*
X151035445Y-73755541D01*
X151035001Y-73754999D01*
X151006004Y-73731202D01*
X149957473Y-72682672D01*
X149996200Y-72682672D01*
X150120682Y-72670412D01*
X150240380Y-72634102D01*
X150350694Y-72575137D01*
X150447385Y-72495785D01*
X150526737Y-72399094D01*
X150585702Y-72288780D01*
X150622012Y-72169082D01*
X150634272Y-72044600D01*
X150634272Y-71385000D01*
X152251928Y-71385000D01*
X152264188Y-71509482D01*
X152300498Y-71629180D01*
X152359463Y-71739494D01*
X152438815Y-71836185D01*
X152535506Y-71915537D01*
X152645820Y-71974502D01*
X152765518Y-72010812D01*
X152890000Y-72023072D01*
X153179250Y-72020000D01*
X153338000Y-71861250D01*
X153338000Y-70612000D01*
X153592000Y-70612000D01*
X153592000Y-71861250D01*
X153750750Y-72020000D01*
X154040000Y-72023072D01*
X154164482Y-72010812D01*
X154284180Y-71974502D01*
X154394494Y-71915537D01*
X154491185Y-71836185D01*
X154570537Y-71739494D01*
X154629502Y-71629180D01*
X154665812Y-71509482D01*
X154678072Y-71385000D01*
X154675000Y-70770750D01*
X154516250Y-70612000D01*
X153592000Y-70612000D01*
X153338000Y-70612000D01*
X152413750Y-70612000D01*
X152255000Y-70770750D01*
X152251928Y-71385000D01*
X150634272Y-71385000D01*
X150634272Y-70144600D01*
X150622012Y-70020118D01*
X150585702Y-69900420D01*
X150544079Y-69822550D01*
X150539003Y-69771014D01*
X150495546Y-69627753D01*
X150424974Y-69495724D01*
X150330001Y-69379999D01*
X150300998Y-69356197D01*
X150043953Y-69099152D01*
X150194227Y-68948877D01*
X150366570Y-68690948D01*
X150368000Y-68687496D01*
X150369430Y-68690948D01*
%TA.AperFunction,Conductor*%
D20*
G36*
X150369430Y-68690948D02*
G01*
X150541773Y-68948877D01*
X150761123Y-69168227D01*
X151019052Y-69340570D01*
X151305648Y-69459282D01*
X151609896Y-69519800D01*
X151920104Y-69519800D01*
X152224352Y-69459282D01*
X152270342Y-69440233D01*
X152264188Y-69460518D01*
X152251928Y-69585000D01*
X152255000Y-70199250D01*
X152413750Y-70358000D01*
X153338000Y-70358000D01*
X153338000Y-70338000D01*
X153592000Y-70338000D01*
X153592000Y-70358000D01*
X154516250Y-70358000D01*
X154675000Y-70199250D01*
X154678072Y-69585000D01*
X154671651Y-69519800D01*
X154714104Y-69519800D01*
X155018352Y-69459282D01*
X155304948Y-69340570D01*
X155410127Y-69270291D01*
X155351595Y-69341613D01*
X155269528Y-69495149D01*
X155218992Y-69661745D01*
X155201928Y-69834999D01*
X155201928Y-71135001D01*
X155218992Y-71308255D01*
X155269528Y-71474851D01*
X155351595Y-71628387D01*
X155462038Y-71762962D01*
X155596613Y-71873405D01*
X155750149Y-71955472D01*
X155916745Y-72006008D01*
X156089999Y-72023072D01*
X156740001Y-72023072D01*
X156913255Y-72006008D01*
X157079851Y-71955472D01*
X157233387Y-71873405D01*
X157367962Y-71762962D01*
X157478405Y-71628387D01*
X157532799Y-71526623D01*
X157532799Y-73167399D01*
X157222998Y-73477201D01*
X157194000Y-73500999D01*
X157170202Y-73529997D01*
X157170201Y-73529998D01*
X157099026Y-73616724D01*
X157028454Y-73748754D01*
X157000469Y-73841013D01*
X156984998Y-73892014D01*
X156983978Y-73902367D01*
X156946939Y-73895000D01*
X156743061Y-73895000D01*
X156543102Y-73934774D01*
X156354744Y-74012795D01*
X156185226Y-74126063D01*
X156041063Y-74270226D01*
X155927795Y-74439744D01*
X155849774Y-74628102D01*
X155810000Y-74828061D01*
X155810000Y-75031939D01*
X155849774Y-75231898D01*
X155927795Y-75420256D01*
X156041063Y-75589774D01*
X156058217Y-75606928D01*
X155935000Y-75606928D01*
X155771500Y-75623031D01*
X155614284Y-75670722D01*
X155559537Y-75699985D01*
X155526962Y-75592600D01*
X155467997Y-75482286D01*
X155388645Y-75385595D01*
X155379960Y-75378467D01*
X155379960Y-74901284D01*
X155383636Y-74863961D01*
X155379960Y-74826638D01*
X155379960Y-74709448D01*
X155409502Y-74654180D01*
X155445812Y-74534482D01*
X155458072Y-74410000D01*
X155458072Y-72910000D01*
X155445812Y-72785518D01*
X155409502Y-72665820D01*
X155350537Y-72555506D01*
X155271185Y-72458815D01*
X155174494Y-72379463D01*
X155064180Y-72320498D01*
X154944482Y-72284188D01*
X154820000Y-72271928D01*
X153820000Y-72271928D01*
X153695518Y-72284188D01*
X153670000Y-72291929D01*
X153644482Y-72284188D01*
X153520000Y-72271928D01*
X153305750Y-72275000D01*
X153147000Y-72433750D01*
X153147000Y-72789407D01*
X153125219Y-72800988D01*
X153072297Y-72828655D01*
X153070563Y-72830049D01*
X153068596Y-72831095D01*
X153022263Y-72868883D01*
X152975714Y-72906310D01*
X152974283Y-72908015D01*
X152972557Y-72909423D01*
X152934461Y-72955473D01*
X152896053Y-73001246D01*
X152894980Y-73003198D01*
X152893561Y-73004913D01*
X152893000Y-73005951D01*
X152893000Y-72433750D01*
X152734250Y-72275000D01*
X152520000Y-72271928D01*
X152395518Y-72284188D01*
X152275820Y-72320498D01*
X152165506Y-72379463D01*
X152068815Y-72458815D01*
X151989463Y-72555506D01*
X151930498Y-72665820D01*
X151894188Y-72785518D01*
X151881928Y-72910000D01*
X151885000Y-73374250D01*
X152043750Y-73533000D01*
X152785000Y-73533000D01*
X152785000Y-73787000D01*
X152043750Y-73787000D01*
X151885000Y-73945750D01*
X151881928Y-74410000D01*
X151894188Y-74534482D01*
X151930498Y-74654180D01*
X151959044Y-74707584D01*
X151937400Y-74733957D01*
X151602797Y-75068561D01*
X151608072Y-75015000D01*
X151608072Y-74565000D01*
X151591488Y-74396623D01*
X151542375Y-74234717D01*
X151462618Y-74085503D01*
X151355284Y-73954716D01*
X151224497Y-73847382D01*
X151075283Y-73767625D01*
X151035445Y-73755541D01*
X151035001Y-73754999D01*
X151006004Y-73731202D01*
X149957473Y-72682672D01*
X149996200Y-72682672D01*
X150120682Y-72670412D01*
X150240380Y-72634102D01*
X150350694Y-72575137D01*
X150447385Y-72495785D01*
X150526737Y-72399094D01*
X150585702Y-72288780D01*
X150622012Y-72169082D01*
X150634272Y-72044600D01*
X150634272Y-71385000D01*
X152251928Y-71385000D01*
X152264188Y-71509482D01*
X152300498Y-71629180D01*
X152359463Y-71739494D01*
X152438815Y-71836185D01*
X152535506Y-71915537D01*
X152645820Y-71974502D01*
X152765518Y-72010812D01*
X152890000Y-72023072D01*
X153179250Y-72020000D01*
X153338000Y-71861250D01*
X153338000Y-70612000D01*
X153592000Y-70612000D01*
X153592000Y-71861250D01*
X153750750Y-72020000D01*
X154040000Y-72023072D01*
X154164482Y-72010812D01*
X154284180Y-71974502D01*
X154394494Y-71915537D01*
X154491185Y-71836185D01*
X154570537Y-71739494D01*
X154629502Y-71629180D01*
X154665812Y-71509482D01*
X154678072Y-71385000D01*
X154675000Y-70770750D01*
X154516250Y-70612000D01*
X153592000Y-70612000D01*
X153338000Y-70612000D01*
X152413750Y-70612000D01*
X152255000Y-70770750D01*
X152251928Y-71385000D01*
X150634272Y-71385000D01*
X150634272Y-70144600D01*
X150622012Y-70020118D01*
X150585702Y-69900420D01*
X150544079Y-69822550D01*
X150539003Y-69771014D01*
X150495546Y-69627753D01*
X150424974Y-69495724D01*
X150330001Y-69379999D01*
X150300998Y-69356197D01*
X150043953Y-69099152D01*
X150194227Y-68948877D01*
X150366570Y-68690948D01*
X150368000Y-68687496D01*
X150369430Y-68690948D01*
G37*
%TD.AperFunction*%
%TD*%
M02*
